NotoSansLaoUI-Regular.ufo
<glyph name="khoKhai-lao" format="2">
  <advance width="609"/>
  <unicode hex="0E82"/>
  <note>
uni0E82
</note>
  <anchor x="536" y="0" name="bottom"/>
  <anchor x="517" y="504" name="top"/>
  <anchor x="317" y="504" name="top2"/>
  <outline>
    <contour>
      <point x="203" y="-10" type="curve" smooth="yes"/>
      <point x="299" y="-10"/>
      <point x="365" y="54"/>
      <point x="416" y="54" type="curve" smooth="yes"/>
      <point x="437" y="54"/>
      <point x="449" y="44"/>
      <point x="449" y="20" type="curve" smooth="yes"/>
      <point x="449" y="0" type="line"/>
      <point x="536" y="0" type="line"/>
      <point x="536" y="24" type="line" smooth="yes"/>
      <point x="536" y="100"/>
      <point x="487" y="127"/>
      <point x="434" y="127" type="curve" smooth="yes"/>
      <point x="351" y="127"/>
      <point x="270" y="59"/>
      <point x="208" y="59" type="curve" smooth="yes"/>
      <point x="173" y="59"/>
      <point x="153" y="81"/>
      <point x="153" y="106" type="curve" smooth="yes"/>
      <point x="153" y="158"/>
      <point x="235" y="177"/>
      <point x="312" y="200" type="curve" smooth="yes"/>
      <point x="434" y="236"/>
      <point x="535" y="273"/>
      <point x="535" y="370" type="curve" smooth="yes"/>
      <point x="535" y="453"/>
      <point x="462" y="526"/>
      <point x="303" y="526" type="curve" smooth="yes"/>
      <point x="141" y="526"/>
      <point x="73" y="451"/>
      <point x="73" y="371" type="curve" smooth="yes"/>
      <point x="73" y="341"/>
      <point x="82" y="311"/>
      <point x="104" y="293" type="curve"/>
      <point x="174" y="328" type="line"/>
      <point x="164" y="339"/>
      <point x="157" y="350"/>
      <point x="157" y="369" type="curve" smooth="yes"/>
      <point x="157" y="428"/>
      <point x="223" y="455"/>
      <point x="304" y="455" type="curve" smooth="yes"/>
      <point x="384" y="455"/>
      <point x="450" y="429"/>
      <point x="450" y="371" type="curve" smooth="yes"/>
      <point x="450" y="312"/>
      <point x="381" y="295"/>
      <point x="288" y="268" type="curve" smooth="yes"/>
      <point x="184" y="238"/>
      <point x="68" y="206"/>
      <point x="68" y="103" type="curve" smooth="yes"/>
      <point x="68" y="25"/>
      <point x="133" y="-10"/>
    </contour>
  </outline>
</glyph>
<glyph name="khoKhuay-lao" format="2">
  <advance width="608"/>
  <unicode hex="0E84"/>
  <note>
uni0E84
</note>
  <anchor x="526" y="0" name="bottom"/>
  <anchor x="516" y="504" name="top"/>
  <anchor x="313" y="504" name="top2"/>
  <outline>
    <contour>
      <point x="228" y="-10" type="curve" smooth="yes"/>
      <point x="262" y="-10"/>
      <point x="299" y="-4"/>
      <point x="318" y="4" type="curve"/>
      <point x="303" y="72" type="line"/>
      <point x="288" y="67"/>
      <point x="266" y="62"/>
      <point x="243" y="62" type="curve" smooth="yes"/>
      <point x="185" y="62"/>
      <point x="156" y="94"/>
      <point x="156" y="142" type="curve" smooth="yes"/>
      <point x="156" y="203"/>
      <point x="202" y="225"/>
      <point x="272" y="225" type="curve" smooth="yes"/>
      <point x="292" y="225" type="line"/>
      <point x="292" y="288" type="line"/>
      <point x="272" y="288" type="line" smooth="yes"/>
      <point x="204" y="288"/>
      <point x="156" y="317"/>
      <point x="156" y="371" type="curve" smooth="yes"/>
      <point x="156" y="425"/>
      <point x="204" y="454"/>
      <point x="296" y="454" type="curve" smooth="yes"/>
      <point x="400" y="454"/>
      <point x="438" y="416"/>
      <point x="438" y="348" type="curve" smooth="yes"/>
      <point x="438" y="0" type="line"/>
      <point x="526" y="0" type="line"/>
      <point x="526" y="340" type="line" smooth="yes"/>
      <point x="526" y="471"/>
      <point x="449" y="526"/>
      <point x="302" y="526" type="curve" smooth="yes"/>
      <point x="150" y="526"/>
      <point x="68" y="468"/>
      <point x="68" y="375" type="curve" smooth="yes"/>
      <point x="68" y="314"/>
      <point x="103" y="275"/>
      <point x="161" y="257" type="curve"/>
      <point x="161" y="254" type="line"/>
      <point x="97" y="238"/>
      <point x="68" y="191"/>
      <point x="68" y="133" type="curve" smooth="yes"/>
      <point x="68" y="62"/>
      <point x="112" y="-10"/>
    </contour>
  </outline>
</glyph>
<glyph name="ngoNgu-lao" format="2">
  <advance width="363"/>
  <unicode hex="0E87"/>
  <note>
uni0E87
</note>
  <anchor x="271" y="-103" name="bottom"/>
  <anchor x="281" y="504" name="top"/>
  <anchor x="153" y="504" name="top2"/>
  <outline>
    <contour>
      <point x="110" y="-103" type="curve" smooth="yes"/>
      <point x="218" y="-103"/>
      <point x="281" y="-52"/>
      <point x="281" y="55" type="curve" smooth="yes"/>
      <point x="281" y="422" type="line" smooth="yes"/>
      <point x="281" y="488"/>
      <point x="228" y="526"/>
      <point x="143" y="526" type="curve" smooth="yes"/>
      <point x="103" y="526"/>
      <point x="62" y="518"/>
      <point x="26" y="502" type="curve"/>
      <point x="45" y="439" type="line"/>
      <point x="66" y="448"/>
      <point x="94" y="454"/>
      <point x="119" y="454" type="curve" smooth="yes"/>
      <point x="166" y="454"/>
      <point x="193" y="434"/>
      <point x="193" y="398" type="curve" smooth="yes"/>
      <point x="193" y="62" type="line" smooth="yes"/>
      <point x="193" y="2"/>
      <point x="166" y="-30"/>
      <point x="96" y="-30" type="curve" smooth="yes"/>
      <point x="51" y="-30"/>
      <point x="10" y="-17"/>
      <point x="-28" y="2" type="curve"/>
      <point x="-28" y="-74" type="line"/>
      <point x="0" y="-87"/>
      <point x="50" y="-103"/>
    </contour>
  </outline>
</glyph>
<glyph name="coCok-lao" format="2">
  <advance width="557"/>
  <unicode hex="0E88"/>
  <note>
uni0E88
</note>
  <anchor x="465" y="0" name="bottom"/>
  <anchor x="465" y="504" name="top"/>
  <anchor x="254" y="504" name="top2"/>
  <outline>
    <contour>
      <point x="195" y="0" type="line"/>
      <point x="251" y="0" type="line" smooth="yes"/>
      <point x="424" y="0"/>
      <point x="485" y="96"/>
      <point x="485" y="257" type="curve" smooth="yes"/>
      <point x="485" y="431"/>
      <point x="413" y="526"/>
      <point x="234" y="526" type="curve" smooth="yes"/>
      <point x="154" y="526"/>
      <point x="85" y="507"/>
      <point x="47" y="488" type="curve"/>
      <point x="47" y="411" type="line"/>
      <point x="101" y="441"/>
      <point x="162" y="454"/>
      <point x="223" y="454" type="curve" smooth="yes"/>
      <point x="347" y="454"/>
      <point x="397" y="399"/>
      <point x="397" y="260" type="curve" smooth="yes"/>
      <point x="397" y="128"/>
      <point x="352" y="73"/>
      <point x="266" y="72" type="curve"/>
      <point x="244" y="207" type="line" smooth="yes"/>
      <point x="231" y="286"/>
      <point x="194" y="306"/>
      <point x="140" y="306" type="curve" smooth="yes"/>
      <point x="117" y="306"/>
      <point x="91" y="302"/>
      <point x="68" y="292" type="curve"/>
      <point x="82" y="229" type="line"/>
      <point x="91" y="232"/>
      <point x="105" y="234"/>
      <point x="117" y="234" type="curve" smooth="yes"/>
      <point x="143" y="234"/>
      <point x="158" y="225"/>
      <point x="163" y="195" type="curve" smooth="yes"/>
    </contour>
  </outline>
</glyph>
<glyph name="soSang-lao" format="2">
  <advance width="609"/>
  <unicode hex="0E8A"/>
  <note>
uni0E8A
</note>
  <anchor x="405" y="0" name="bottom"/>
  <anchor x="517" y="504" name="top"/>
  <anchor x="317" y="504" name="top2"/>
  <outline>
    <contour>
      <point x="449" y="-165" type="line"/>
      <point x="536" y="-165" type="line"/>
      <point x="536" y="24" type="line" smooth="yes"/>
      <point x="536" y="100"/>
      <point x="487" y="127"/>
      <point x="434" y="127" type="curve" smooth="yes"/>
      <point x="351" y="127"/>
      <point x="270" y="59"/>
      <point x="208" y="59" type="curve" smooth="yes"/>
      <point x="173" y="59"/>
      <point x="153" y="81"/>
      <point x="153" y="106" type="curve" smooth="yes"/>
      <point x="153" y="158"/>
      <point x="235" y="177"/>
      <point x="312" y="200" type="curve" smooth="yes"/>
      <point x="431" y="235"/>
      <point x="535" y="271"/>
      <point x="535" y="369" type="curve" smooth="yes"/>
      <point x="535" y="452"/>
      <point x="462" y="526"/>
      <point x="303" y="526" type="curve" smooth="yes"/>
      <point x="141" y="526"/>
      <point x="73" y="450"/>
      <point x="73" y="370" type="curve" smooth="yes"/>
      <point x="73" y="340"/>
      <point x="82" y="310"/>
      <point x="104" y="292" type="curve"/>
      <point x="174" y="327" type="line"/>
      <point x="164" y="338"/>
      <point x="157" y="349"/>
      <point x="157" y="368" type="curve" smooth="yes"/>
      <point x="157" y="427"/>
      <point x="223" y="455"/>
      <point x="304" y="455" type="curve" smooth="yes"/>
      <point x="384" y="455"/>
      <point x="450" y="428"/>
      <point x="450" y="370" type="curve" smooth="yes"/>
      <point x="450" y="312"/>
      <point x="381" y="295"/>
      <point x="288" y="268" type="curve" smooth="yes"/>
      <point x="184" y="238"/>
      <point x="68" y="206"/>
      <point x="68" y="103" type="curve" smooth="yes"/>
      <point x="68" y="25"/>
      <point x="133" y="-10"/>
      <point x="203" y="-10" type="curve" smooth="yes"/>
      <point x="299" y="-10"/>
      <point x="365" y="54"/>
      <point x="416" y="54" type="curve" smooth="yes"/>
      <point x="437" y="54"/>
      <point x="449" y="44"/>
      <point x="449" y="20" type="curve" smooth="yes"/>
    </contour>
  </outline>
</glyph>
<glyph name="nyoNyung-lao" format="2">
  <advance width="608"/>
  <unicode hex="0E8D"/>
  <note>
uni0E8D
</note>
  <anchor x="516" y="0" name="bottom"/>
  <anchor x="526" y="504" name="top"/>
  <anchor x="323" y="504" name="top2"/>
  <outline>
    <contour>
      <point x="299" y="-10" type="curve" smooth="yes"/>
      <point x="447" y="-10"/>
      <point x="526" y="46"/>
      <point x="526" y="179" type="curve" smooth="yes"/>
      <point x="526" y="516" type="line"/>
      <point x="438" y="516" type="line"/>
      <point x="438" y="169" type="line" smooth="yes"/>
      <point x="438" y="93"/>
      <point x="396" y="62"/>
      <point x="300" y="62" type="curve" smooth="yes"/>
      <point x="198" y="62"/>
      <point x="156" y="97"/>
      <point x="156" y="159" type="curve" smooth="yes"/>
      <point x="156" y="219"/>
      <point x="195" y="246"/>
      <point x="272" y="246" type="curve" smooth="yes"/>
      <point x="321" y="246" type="line"/>
      <point x="321" y="309" type="line"/>
      <point x="272" y="309" type="line" smooth="yes"/>
      <point x="215" y="309"/>
      <point x="156" y="324"/>
      <point x="156" y="386" type="curve" smooth="yes"/>
      <point x="156" y="428"/>
      <point x="184" y="454"/>
      <point x="239" y="454" type="curve" smooth="yes"/>
      <point x="263" y="454"/>
      <point x="288" y="449"/>
      <point x="303" y="444" type="curve"/>
      <point x="318" y="511" type="line"/>
      <point x="298" y="520"/>
      <point x="262" y="526"/>
      <point x="227" y="526" type="curve" smooth="yes"/>
      <point x="112" y="526"/>
      <point x="68" y="461"/>
      <point x="68" y="395" type="curve" smooth="yes"/>
      <point x="68" y="324"/>
      <point x="120" y="290"/>
      <point x="161" y="278" type="curve"/>
      <point x="161" y="274" type="line"/>
      <point x="115" y="267"/>
      <point x="68" y="232"/>
      <point x="68" y="153" type="curve" smooth="yes"/>
      <point x="68" y="50"/>
      <point x="146" y="-10"/>
    </contour>
  </outline>
</glyph>
<glyph name="doDek-lao" format="2">
  <advance width="633"/>
  <unicode hex="0E94"/>
  <note>
uni0E94
</note>
  <anchor x="551" y="0" name="bottom"/>
  <anchor x="541" y="504" name="top"/>
  <anchor x="332" y="504" name="top2"/>
  <outline>
    <contour>
      <point x="271" y="-10" type="curve" smooth="yes"/>
      <point x="296" y="-10"/>
      <point x="324" y="-7"/>
      <point x="345" y="1" type="curve"/>
      <point x="334" y="67" type="line"/>
      <point x="318" y="62"/>
      <point x="301" y="59"/>
      <point x="282" y="59" type="curve" smooth="yes"/>
      <point x="192" y="59"/>
      <point x="151" y="123"/>
      <point x="151" y="248" type="curve" smooth="yes"/>
      <point x="151" y="385"/>
      <point x="200" y="454"/>
      <point x="318" y="454" type="curve" smooth="yes"/>
      <point x="417" y="454"/>
      <point x="463" y="406"/>
      <point x="463" y="326" type="curve" smooth="yes"/>
      <point x="463" y="0" type="line"/>
      <point x="551" y="0" type="line"/>
      <point x="551" y="328" type="line" smooth="yes"/>
      <point x="551" y="456"/>
      <point x="460" y="526"/>
      <point x="319" y="526" type="curve" smooth="yes"/>
      <point x="163" y="526"/>
      <point x="63" y="441"/>
      <point x="63" y="246" type="curve" smooth="yes"/>
      <point x="63" y="95"/>
      <point x="123" y="-10"/>
    </contour>
  </outline>
</glyph>
<glyph name="toTa-lao" format="2">
  <advance width="643"/>
  <unicode hex="0E95"/>
  <note>
uni0E95
</note>
  <anchor x="561" y="0" name="bottom"/>
  <anchor x="551" y="504" name="top"/>
  <anchor x="339" y="504" name="top2"/>
  <outline>
    <contour>
      <point x="271" y="-10" type="curve" smooth="yes"/>
      <point x="296" y="-10"/>
      <point x="324" y="-7"/>
      <point x="345" y="1" type="curve"/>
      <point x="334" y="67" type="line"/>
      <point x="318" y="62"/>
      <point x="301" y="59"/>
      <point x="282" y="59" type="curve" smooth="yes"/>
      <point x="190" y="59"/>
      <point x="151" y="127"/>
      <point x="151" y="259" type="curve" smooth="yes"/>
      <point x="151" y="395"/>
      <point x="192" y="454"/>
      <point x="241" y="454" type="curve" smooth="yes"/>
      <point x="275" y="454"/>
      <point x="292" y="425"/>
      <point x="297" y="383" type="curve"/>
      <point x="354" y="383" type="line"/>
      <point x="359" y="422"/>
      <point x="378" y="454"/>
      <point x="416" y="454" type="curve" smooth="yes"/>
      <point x="456" y="454"/>
      <point x="473" y="419"/>
      <point x="473" y="361" type="curve" smooth="yes"/>
      <point x="473" y="0" type="line"/>
      <point x="561" y="0" type="line"/>
      <point x="561" y="368" type="line" smooth="yes"/>
      <point x="561" y="466"/>
      <point x="518" y="526"/>
      <point x="433" y="526" type="curve" smooth="yes"/>
      <point x="377" y="526"/>
      <point x="343" y="500"/>
      <point x="328" y="464" type="curve"/>
      <point x="324" y="464" type="line"/>
      <point x="310" y="499"/>
      <point x="283" y="526"/>
      <point x="228" y="526" type="curve" smooth="yes"/>
      <point x="136" y="526"/>
      <point x="63" y="447"/>
      <point x="63" y="262" type="curve" smooth="yes"/>
      <point x="63" y="93"/>
      <point x="123" y="-10"/>
    </contour>
  </outline>
</glyph>
<glyph name="thoThong-lao" format="2">
  <advance width="613"/>
  <unicode hex="0E96"/>
  <note>
uni0E96
</note>
  <anchor x="409" y="0" name="bottom"/>
  <anchor x="521" y="504" name="top"/>
  <anchor x="331" y="504" name="top2"/>
  <outline>
    <contour>
      <point x="443" y="-165" type="line"/>
      <point x="531" y="-165" type="line"/>
      <point x="531" y="334" type="line" smooth="yes"/>
      <point x="531" y="461"/>
      <point x="456" y="526"/>
      <point x="338" y="526" type="curve" smooth="yes"/>
      <point x="279" y="526"/>
      <point x="218" y="510"/>
      <point x="171" y="450" type="curve"/>
      <point x="168" y="450" type="line"/>
      <point x="156" y="479"/>
      <point x="134" y="511"/>
      <point x="116" y="526" type="curve"/>
      <point x="52" y="477" type="line"/>
      <point x="80" y="451"/>
      <point x="106" y="411"/>
      <point x="106" y="343" type="curve" smooth="yes"/>
      <point x="106" y="100" type="line" smooth="yes"/>
      <point x="106" y="30"/>
      <point x="145" y="-10"/>
      <point x="210" y="-10" type="curve" smooth="yes"/>
      <point x="233" y="-10"/>
      <point x="258" y="-5"/>
      <point x="281" y="4" type="curve"/>
      <point x="268" y="65" type="line"/>
      <point x="256" y="61"/>
      <point x="244" y="59"/>
      <point x="233" y="59" type="curve" smooth="yes"/>
      <point x="206" y="59"/>
      <point x="194" y="71"/>
      <point x="194" y="98" type="curve" smooth="yes"/>
      <point x="194" y="337" type="line" smooth="yes"/>
      <point x="194" y="430"/>
      <point x="260" y="454"/>
      <point x="319" y="454" type="curve" smooth="yes"/>
      <point x="402" y="454"/>
      <point x="443" y="407"/>
      <point x="443" y="328" type="curve" smooth="yes"/>
    </contour>
  </outline>
</glyph>
<glyph name="thoThung-lao" format="2">
  <advance width="720"/>
  <unicode hex="0E97"/>
  <note>
uni0E97
</note>
  <anchor x="638" y="0" name="bottom"/>
  <anchor x="628" y="504" name="top"/>
  <anchor x="371" y="504" name="top2"/>
  <outline>
    <contour>
      <point x="240" y="-10" type="curve" smooth="yes"/>
      <point x="357" y="-10"/>
      <point x="401" y="58"/>
      <point x="401" y="158" type="curve" smooth="yes"/>
      <point x="401" y="362" type="line" smooth="yes"/>
      <point x="401" y="420"/>
      <point x="419" y="454"/>
      <point x="475" y="454" type="curve" smooth="yes"/>
      <point x="531" y="454"/>
      <point x="550" y="420"/>
      <point x="550" y="362" type="curve" smooth="yes"/>
      <point x="550" y="0" type="line"/>
      <point x="638" y="0" type="line"/>
      <point x="638" y="358" type="line" smooth="yes"/>
      <point x="638" y="457"/>
      <point x="593" y="526"/>
      <point x="476" y="526" type="curve" smooth="yes"/>
      <point x="358" y="526"/>
      <point x="315" y="457"/>
      <point x="315" y="358" type="curve" smooth="yes"/>
      <point x="315" y="154" type="line" smooth="yes"/>
      <point x="315" y="96"/>
      <point x="296" y="62"/>
      <point x="240" y="62" type="curve" smooth="yes"/>
      <point x="184" y="62"/>
      <point x="166" y="96"/>
      <point x="166" y="154" type="curve" smooth="yes"/>
      <point x="166" y="516" type="line"/>
      <point x="78" y="516" type="line"/>
      <point x="78" y="158" type="line" smooth="yes"/>
      <point x="78" y="58"/>
      <point x="123" y="-10"/>
    </contour>
  </outline>
</glyph>
<glyph name="noNok-lao" format="2">
  <advance width="608"/>
  <unicode hex="0E99"/>
  <note>
uni0E99
</note>
  <anchor x="516" y="0" name="bottom"/>
  <anchor x="526" y="504" name="top"/>
  <anchor x="304" y="504" name="top2"/>
  <outline>
    <contour>
      <point x="115" y="-10" type="line"/>
      <point x="133" y="4"/>
      <point x="156" y="37"/>
      <point x="168" y="65" type="curve"/>
      <point x="171" y="65" type="line"/>
      <point x="211" y="12"/>
      <point x="264" y="-10"/>
      <point x="332" y="-10" type="curve" smooth="yes"/>
      <point x="455" y="-10"/>
      <point x="526" y="63"/>
      <point x="526" y="187" type="curve" smooth="yes"/>
      <point x="526" y="516" type="line"/>
      <point x="438" y="516" type="line"/>
      <point x="438" y="188" type="line" smooth="yes"/>
      <point x="438" y="108"/>
      <point x="395" y="62"/>
      <point x="317" y="62" type="curve" smooth="yes"/>
      <point x="241" y="62"/>
      <point x="194" y="106"/>
      <point x="194" y="179" type="curve" smooth="yes"/>
      <point x="194" y="416" type="line" smooth="yes"/>
      <point x="194" y="487"/>
      <point x="163" y="526"/>
      <point x="95" y="526" type="curve" smooth="yes"/>
      <point x="73" y="526"/>
      <point x="44" y="522"/>
      <point x="20" y="512" type="curve"/>
      <point x="33" y="451" type="line"/>
      <point x="44" y="454"/>
      <point x="56" y="457"/>
      <point x="68" y="457" type="curve" smooth="yes"/>
      <point x="94" y="457"/>
      <point x="106" y="445"/>
      <point x="106" y="417" type="curve" smooth="yes"/>
      <point x="106" y="173" type="line" smooth="yes"/>
      <point x="106" y="105"/>
      <point x="79" y="64"/>
      <point x="51" y="38" type="curve"/>
    </contour>
  </outline>
</glyph>
<glyph name="boBae-lao" format="2">
  <advance width="608"/>
  <unicode hex="0E9A"/>
  <note>
uni0E9A
</note>
  <anchor x="516" y="0" name="bottom"/>
  <anchor x="526" y="504" name="top"/>
  <anchor x="302" y="504" name="top2"/>
  <outline>
    <contour>
      <point x="302" y="-10" type="curve" smooth="yes"/>
      <point x="461" y="-10"/>
      <point x="526" y="67"/>
      <point x="526" y="196" type="curve" smooth="yes"/>
      <point x="526" y="516" type="line"/>
      <point x="438" y="516" type="line"/>
      <point x="438" y="188" type="line" smooth="yes"/>
      <point x="438" y="109"/>
      <point x="399" y="62"/>
      <point x="302" y="62" type="curve" smooth="yes"/>
      <point x="206" y="62"/>
      <point x="166" y="109"/>
      <point x="166" y="188" type="curve" smooth="yes"/>
      <point x="166" y="516" type="line"/>
      <point x="78" y="516" type="line"/>
      <point x="78" y="196" type="line" smooth="yes"/>
      <point x="78" y="67"/>
      <point x="143" y="-10"/>
    </contour>
  </outline>
</glyph>
<glyph name="poPa-lao" format="2">
  <advance width="608"/>
  <unicode hex="0E9B"/>
  <note>
uni0E9B
</note>
  <anchor x="516" y="0" name="bottom"/>
  <anchor x="404" y="504" name="top"/>
  <anchor x="286" y="504" name="top2"/>
  <outline>
    <contour>
      <point x="302" y="-10" type="curve" smooth="yes"/>
      <point x="461" y="-10"/>
      <point x="526" y="67"/>
      <point x="526" y="196" type="curve" smooth="yes"/>
      <point x="526" y="682" type="line"/>
      <point x="438" y="682" type="line"/>
      <point x="438" y="188" type="line" smooth="yes"/>
      <point x="438" y="109"/>
      <point x="399" y="62"/>
      <point x="302" y="62" type="curve" smooth="yes"/>
      <point x="206" y="62"/>
      <point x="166" y="109"/>
      <point x="166" y="188" type="curve" smooth="yes"/>
      <point x="166" y="516" type="line"/>
      <point x="78" y="516" type="line"/>
      <point x="78" y="196" type="line" smooth="yes"/>
      <point x="78" y="67"/>
      <point x="143" y="-10"/>
    </contour>
  </outline>
</glyph>
<glyph name="phoPhueng-lao" format="2">
  <advance width="720"/>
  <unicode hex="0E9C"/>
  <note>
uni0E9C
</note>
  <anchor x="628" y="0" name="bottom"/>
  <anchor x="638" y="504" name="top"/>
  <anchor x="365" y="504" name="top2"/>
  <outline>
    <contour>
      <point x="226" y="-10" type="curve" smooth="yes"/>
      <point x="290" y="-10"/>
      <point x="328" y="14"/>
      <point x="356" y="53" type="curve"/>
      <point x="360" y="53" type="line"/>
      <point x="388" y="14"/>
      <point x="426" y="-10"/>
      <point x="490" y="-10" type="curve" smooth="yes"/>
      <point x="592" y="-10"/>
      <point x="638" y="51"/>
      <point x="638" y="148" type="curve" smooth="yes"/>
      <point x="638" y="325" type="line" smooth="yes"/>
      <point x="638" y="378"/>
      <point x="622" y="411"/>
      <point x="578" y="431" type="curve"/>
      <point x="578" y="435" type="line"/>
      <point x="622" y="460"/>
      <point x="638" y="495"/>
      <point x="638" y="546" type="curve" smooth="yes"/>
      <point x="638" y="554" type="line"/>
      <point x="550" y="554" type="line"/>
      <point x="550" y="546" type="line" smooth="yes"/>
      <point x="550" y="497"/>
      <point x="536" y="464"/>
      <point x="489" y="464" type="curve" smooth="yes"/>
      <point x="475" y="464" type="line"/>
      <point x="475" y="405" type="line"/>
      <point x="488" y="405" type="line" smooth="yes"/>
      <point x="528" y="405"/>
      <point x="550" y="377"/>
      <point x="550" y="324" type="curve" smooth="yes"/>
      <point x="550" y="138" type="line" smooth="yes"/>
      <point x="550" y="85"/>
      <point x="526" y="62"/>
      <point x="477" y="62" type="curve" smooth="yes"/>
      <point x="418" y="62"/>
      <point x="401" y="94"/>
      <point x="401" y="152" type="curve" smooth="yes"/>
      <point x="401" y="311" type="line"/>
      <point x="315" y="311" type="line"/>
      <point x="315" y="152" type="line" smooth="yes"/>
      <point x="315" y="94"/>
      <point x="297" y="62"/>
      <point x="239" y="62" type="curve" smooth="yes"/>
      <point x="189" y="62"/>
      <point x="166" y="85"/>
      <point x="166" y="138" type="curve" smooth="yes"/>
      <point x="166" y="416" type="line" smooth="yes"/>
      <point x="166" y="446"/>
      <point x="183" y="457"/>
      <point x="204" y="457" type="curve" smooth="yes"/>
      <point x="215" y="457"/>
      <point x="228" y="454"/>
      <point x="240" y="451" type="curve"/>
      <point x="253" y="512" type="line"/>
      <point x="228" y="521"/>
      <point x="203" y="526"/>
      <point x="181" y="526" type="curve" smooth="yes"/>
      <point x="117" y="526"/>
      <point x="78" y="486"/>
      <point x="78" y="415" type="curve" smooth="yes"/>
      <point x="78" y="148" type="line" smooth="yes"/>
      <point x="78" y="50"/>
      <point x="125" y="-10"/>
    </contour>
  </outline>
</glyph>
<glyph name="foFon-lao" format="2">
  <advance width="720"/>
  <unicode hex="0E9D"/>
  <note>
uni0E9D
</note>
  <anchor x="628" y="0" name="bottom"/>
  <anchor x="516" y="504" name="top"/>
  <anchor x="365" y="504" name="top2"/>
  <outline>
    <contour>
      <point x="226" y="-10" type="curve" smooth="yes"/>
      <point x="290" y="-10"/>
      <point x="328" y="14"/>
      <point x="356" y="53" type="curve"/>
      <point x="360" y="53" type="line"/>
      <point x="388" y="14"/>
      <point x="426" y="-10"/>
      <point x="490" y="-10" type="curve" smooth="yes"/>
      <point x="592" y="-10"/>
      <point x="638" y="51"/>
      <point x="638" y="148" type="curve" smooth="yes"/>
      <point x="638" y="682" type="line"/>
      <point x="550" y="682" type="line"/>
      <point x="550" y="138" type="line" smooth="yes"/>
      <point x="550" y="85"/>
      <point x="526" y="62"/>
      <point x="477" y="62" type="curve" smooth="yes"/>
      <point x="418" y="62"/>
      <point x="401" y="94"/>
      <point x="401" y="152" type="curve" smooth="yes"/>
      <point x="401" y="311" type="line"/>
      <point x="315" y="311" type="line"/>
      <point x="315" y="152" type="line" smooth="yes"/>
      <point x="315" y="94"/>
      <point x="297" y="62"/>
      <point x="239" y="62" type="curve" smooth="yes"/>
      <point x="189" y="62"/>
      <point x="166" y="85"/>
      <point x="166" y="138" type="curve" smooth="yes"/>
      <point x="166" y="416" type="line" smooth="yes"/>
      <point x="166" y="446"/>
      <point x="183" y="457"/>
      <point x="204" y="457" type="curve" smooth="yes"/>
      <point x="215" y="457"/>
      <point x="228" y="454"/>
      <point x="240" y="451" type="curve"/>
      <point x="253" y="512" type="line"/>
      <point x="228" y="521"/>
      <point x="203" y="526"/>
      <point x="181" y="526" type="curve" smooth="yes"/>
      <point x="117" y="526"/>
      <point x="78" y="486"/>
      <point x="78" y="415" type="curve" smooth="yes"/>
      <point x="78" y="148" type="line" smooth="yes"/>
      <point x="78" y="50"/>
      <point x="125" y="-10"/>
    </contour>
  </outline>
</glyph>
<glyph name="foFai-lao" format="2">
  <advance width="726"/>
  <unicode hex="0E9F"/>
  <note>
uni0E9F
</note>
  <anchor x="634" y="0" name="bottom"/>
  <anchor x="522" y="504" name="top"/>
  <anchor x="361" y="504" name="top2"/>
  <outline>
    <contour>
      <point x="223" y="-10" type="curve" smooth="yes"/>
      <point x="289" y="-10"/>
      <point x="337" y="19"/>
      <point x="358" y="57" type="curve"/>
      <point x="364" y="57" type="line"/>
      <point x="385" y="19"/>
      <point x="433" y="-10"/>
      <point x="499" y="-10" type="curve" smooth="yes"/>
      <point x="588" y="-10"/>
      <point x="644" y="42"/>
      <point x="644" y="149" type="curve" smooth="yes"/>
      <point x="644" y="682" type="line"/>
      <point x="556" y="682" type="line"/>
      <point x="556" y="147" type="line" smooth="yes"/>
      <point x="556" y="87"/>
      <point x="531" y="62"/>
      <point x="482" y="62" type="curve" smooth="yes"/>
      <point x="430" y="62"/>
      <point x="404" y="91"/>
      <point x="404" y="149" type="curve" smooth="yes"/>
      <point x="404" y="516" type="line"/>
      <point x="318" y="516" type="line"/>
      <point x="318" y="149" type="line" smooth="yes"/>
      <point x="318" y="91"/>
      <point x="292" y="62"/>
      <point x="240" y="62" type="curve" smooth="yes"/>
      <point x="191" y="62"/>
      <point x="166" y="87"/>
      <point x="166" y="147" type="curve" smooth="yes"/>
      <point x="166" y="516" type="line"/>
      <point x="78" y="516" type="line"/>
      <point x="78" y="149" type="line" smooth="yes"/>
      <point x="78" y="42"/>
      <point x="134" y="-10"/>
    </contour>
  </outline>
</glyph>
<glyph name="moMa-lao" format="2">
  <advance width="608"/>
  <unicode hex="0EA1"/>
  <note>
uni0EA1
</note>
  <anchor x="516" y="0" name="bottom"/>
  <anchor x="526" y="504" name="top"/>
  <anchor x="312" y="504" name="top2"/>
  <outline>
    <contour>
      <point x="95" y="-10" type="curve" smooth="yes"/>
      <point x="150" y="-10"/>
      <point x="183" y="14"/>
      <point x="183" y="58" type="curve" smooth="yes"/>
      <point x="183" y="77" type="line"/>
      <point x="148" y="47" type="line"/>
      <point x="185" y="47" type="line"/>
      <point x="229" y="3"/>
      <point x="278" y="-10"/>
      <point x="332" y="-10" type="curve" smooth="yes"/>
      <point x="455" y="-10"/>
      <point x="526" y="56"/>
      <point x="526" y="182" type="curve" smooth="yes"/>
      <point x="526" y="516" type="line"/>
      <point x="438" y="516" type="line"/>
      <point x="438" y="188" type="line" smooth="yes"/>
      <point x="438" y="108"/>
      <point x="399" y="62"/>
      <point x="317" y="62" type="curve" smooth="yes"/>
      <point x="256" y="62"/>
      <point x="194" y="87"/>
      <point x="194" y="180" type="curve" smooth="yes"/>
      <point x="194" y="516" type="line"/>
      <point x="106" y="516" type="line"/>
      <point x="106" y="98" type="line" smooth="yes"/>
      <point x="106" y="69"/>
      <point x="89" y="59"/>
      <point x="67" y="59" type="curve" smooth="yes"/>
      <point x="57" y="59"/>
      <point x="45" y="61"/>
      <point x="33" y="65" type="curve"/>
      <point x="20" y="4" type="line"/>
      <point x="42" y="-4"/>
      <point x="68" y="-10"/>
    </contour>
  </outline>
</glyph>
<glyph name="yoYa-lao" format="2">
  <advance width="613"/>
  <unicode hex="0EA2"/>
  <note>
uni0EA2
</note>
  <anchor x="521" y="0" name="bottom"/>
  <anchor x="410" y="512" name="top"/>
  <anchor x="293" y="512" name="top2"/>
  <outline>
    <contour>
      <point x="300" y="-10" type="curve" smooth="yes"/>
      <point x="449" y="-10"/>
      <point x="531" y="48"/>
      <point x="531" y="181" type="curve" smooth="yes"/>
      <point x="531" y="683" type="line"/>
      <point x="443" y="683" type="line"/>
      <point x="443" y="172" type="line" smooth="yes"/>
      <point x="443" y="95"/>
      <point x="398" y="63"/>
      <point x="301" y="63" type="curve" smooth="yes"/>
      <point x="198" y="63"/>
      <point x="156" y="99"/>
      <point x="156" y="159" type="curve" smooth="yes"/>
      <point x="156" y="218"/>
      <point x="196" y="246"/>
      <point x="272" y="246" type="curve" smooth="yes"/>
      <point x="321" y="246" type="line"/>
      <point x="321" y="310" type="line"/>
      <point x="272" y="310" type="line" smooth="yes"/>
      <point x="215" y="310"/>
      <point x="156" y="323"/>
      <point x="156" y="386" type="curve" smooth="yes"/>
      <point x="156" y="429"/>
      <point x="184" y="454"/>
      <point x="238" y="454" type="curve" smooth="yes"/>
      <point x="264" y="454"/>
      <point x="288" y="448"/>
      <point x="303" y="443" type="curve"/>
      <point x="318" y="511" type="line"/>
      <point x="298" y="520"/>
      <point x="262" y="526"/>
      <point x="227" y="526" type="curve" smooth="yes"/>
      <point x="112" y="526"/>
      <point x="68" y="462"/>
      <point x="68" y="395" type="curve" smooth="yes"/>
      <point x="68" y="323"/>
      <point x="120" y="290"/>
      <point x="161" y="278" type="curve"/>
      <point x="161" y="274" type="line"/>
      <point x="118" y="268"/>
      <point x="68" y="234"/>
      <point x="68" y="153" type="curve" smooth="yes"/>
      <point x="68" y="50"/>
      <point x="148" y="-10"/>
    </contour>
  </outline>
</glyph>
<glyph name="roRot-lao" format="2">
  <advance width="609"/>
  <unicode hex="0EA3"/>
  <note>
uni0EA3
</note>
  <anchor x="503" y="0" name="bottom"/>
  <anchor x="516" y="504" name="top"/>
  <anchor x="303" y="504" name="top2"/>
  <outline>
    <contour>
      <point x="303" y="-10" type="curve" smooth="yes"/>
      <point x="464" y="-10"/>
      <point x="536" y="60"/>
      <point x="536" y="152" type="curve" smooth="yes"/>
      <point x="536" y="272"/>
      <point x="411" y="303"/>
      <point x="312" y="326" type="curve" smooth="yes"/>
      <point x="209" y="350"/>
      <point x="153" y="359"/>
      <point x="153" y="403" type="curve" smooth="yes"/>
      <point x="153" y="440"/>
      <point x="193" y="454"/>
      <point x="280" y="454" type="curve" smooth="yes"/>
      <point x="364" y="454"/>
      <point x="436" y="441"/>
      <point x="516" y="411" type="curve"/>
      <point x="516" y="488" type="line"/>
      <point x="446" y="515"/>
      <point x="362" y="526"/>
      <point x="285" y="526" type="curve" smooth="yes"/>
      <point x="152" y="526"/>
      <point x="68" y="493"/>
      <point x="68" y="404" type="curve" smooth="yes"/>
      <point x="68" y="300"/>
      <point x="182" y="283"/>
      <point x="290" y="258" type="curve" smooth="yes"/>
      <point x="386" y="236"/>
      <point x="451" y="217"/>
      <point x="451" y="151" type="curve" smooth="yes"/>
      <point x="451" y="85"/>
      <point x="387" y="61"/>
      <point x="299" y="61" type="curve" smooth="yes"/>
      <point x="224" y="61"/>
      <point x="153" y="79"/>
      <point x="153" y="144" type="curve" smooth="yes"/>
      <point x="153" y="163"/>
      <point x="159" y="178"/>
      <point x="168" y="188" type="curve"/>
      <point x="100" y="220" type="line"/>
      <point x="86" y="207"/>
      <point x="68" y="183"/>
      <point x="68" y="143" type="curve" smooth="yes"/>
      <point x="68" y="65"/>
      <point x="136" y="-10"/>
    </contour>
  </outline>
</glyph>
<glyph name="loLing-lao" format="2">
  <advance width="620"/>
  <unicode hex="0EA5"/>
  <note>
uni0EA5
</note>
  <anchor x="528" y="0" name="bottom"/>
  <anchor x="528" y="504" name="top"/>
  <anchor x="315" y="504" name="top2"/>
  <outline>
    <contour>
      <point x="180" y="-10" type="curve" smooth="yes"/>
      <point x="204" y="-10"/>
      <point x="226" y="-6"/>
      <point x="240" y="-1" type="curve"/>
      <point x="227" y="59" type="line"/>
      <point x="218" y="56"/>
      <point x="206" y="54"/>
      <point x="194" y="54" type="curve" smooth="yes"/>
      <point x="151" y="54"/>
      <point x="132" y="79"/>
      <point x="132" y="131" type="curve" smooth="yes"/>
      <point x="132" y="193"/>
      <point x="159" y="218"/>
      <point x="202" y="218" type="curve" smooth="yes"/>
      <point x="235" y="218"/>
      <point x="256" y="204"/>
      <point x="266" y="175" type="curve" smooth="yes"/>
      <point x="302" y="69" type="line" smooth="yes"/>
      <point x="320" y="17"/>
      <point x="351" y="-10"/>
      <point x="416" y="-10" type="curve" smooth="yes"/>
      <point x="489" y="-10"/>
      <point x="538" y="25"/>
      <point x="538" y="102" type="curve" smooth="yes"/>
      <point x="538" y="340" type="line" smooth="yes"/>
      <point x="538" y="468"/>
      <point x="432" y="526"/>
      <point x="292" y="526" type="curve" smooth="yes"/>
      <point x="212" y="526"/>
      <point x="121" y="507"/>
      <point x="84" y="488" type="curve"/>
      <point x="84" y="412" type="line"/>
      <point x="137" y="442"/>
      <point x="220" y="454"/>
      <point x="279" y="454" type="curve" smooth="yes"/>
      <point x="385" y="454"/>
      <point x="450" y="414"/>
      <point x="450" y="333" type="curve" smooth="yes"/>
      <point x="450" y="87" type="line" smooth="yes"/>
      <point x="450" y="62"/>
      <point x="439" y="50"/>
      <point x="417" y="50" type="curve" smooth="yes"/>
      <point x="398" y="50"/>
      <point x="386" y="58"/>
      <point x="378" y="81" type="curve" smooth="yes"/>
      <point x="339" y="196" type="line" smooth="yes"/>
      <point x="320" y="252"/>
      <point x="282" y="287"/>
      <point x="205" y="287" type="curve" smooth="yes"/>
      <point x="98" y="287"/>
      <point x="53" y="220"/>
      <point x="53" y="129" type="curve" smooth="yes"/>
      <point x="53" y="43"/>
      <point x="93" y="-10"/>
    </contour>
  </outline>
</glyph>
<glyph name="woWi-lao" format="2">
  <advance width="580"/>
  <unicode hex="0EA7"/>
  <note>
uni0EA7
</note>
  <anchor x="481" y="0" name="bottom"/>
  <anchor x="481" y="504" name="top"/>
  <anchor x="275" y="504" name="top2"/>
  <outline>
    <contour>
      <point x="265" y="-10" type="curve" smooth="yes"/>
      <point x="403" y="-10"/>
      <point x="509" y="53"/>
      <point x="509" y="258" type="curve" smooth="yes"/>
      <point x="509" y="470"/>
      <point x="396" y="526"/>
      <point x="249" y="526" type="curve" smooth="yes"/>
      <point x="169" y="526"/>
      <point x="103" y="509"/>
      <point x="59" y="488" type="curve"/>
      <point x="59" y="411" type="line"/>
      <point x="114" y="438"/>
      <point x="173" y="454"/>
      <point x="242" y="454" type="curve" smooth="yes"/>
      <point x="349" y="454"/>
      <point x="421" y="415"/>
      <point x="421" y="256" type="curve" smooth="yes"/>
      <point x="421" y="110"/>
      <point x="360" y="62"/>
      <point x="259" y="62" type="curve" smooth="yes"/>
      <point x="173" y="62"/>
      <point x="126" y="97"/>
      <point x="126" y="149" type="curve" smooth="yes"/>
      <point x="126" y="162"/>
      <point x="129" y="173"/>
      <point x="133" y="181" type="curve"/>
      <point x="50" y="204" type="line"/>
      <point x="43" y="189"/>
      <point x="39" y="173"/>
      <point x="39" y="151" type="curve" smooth="yes"/>
      <point x="39" y="47"/>
      <point x="133" y="-10"/>
    </contour>
  </outline>
</glyph>
<glyph name="soSeua-lao" format="2">
  <advance width="629"/>
  <unicode hex="0EAA"/>
  <note>
uni0EAA
</note>
  <anchor x="537" y="0" name="bottom"/>
  <anchor x="547" y="505" name="top"/>
  <anchor x="312" y="505" name="top2"/>
  <outline>
    <contour>
      <point x="191" y="-10" type="curve" smooth="yes"/>
      <point x="212" y="-10"/>
      <point x="232" y="-7"/>
      <point x="247" y="-1" type="curve"/>
      <point x="233" y="59" type="line"/>
      <point x="222" y="56"/>
      <point x="213" y="54"/>
      <point x="201" y="54" type="curve" smooth="yes"/>
      <point x="157" y="54"/>
      <point x="138" y="80"/>
      <point x="138" y="127" type="curve" smooth="yes"/>
      <point x="138" y="182"/>
      <point x="164" y="204"/>
      <point x="208" y="204" type="curve" smooth="yes"/>
      <point x="245" y="204"/>
      <point x="271" y="188"/>
      <point x="281" y="157" type="curve" smooth="yes"/>
      <point x="309" y="67" type="line" smooth="yes"/>
      <point x="325" y="16"/>
      <point x="360" y="-10"/>
      <point x="425" y="-10" type="curve" smooth="yes"/>
      <point x="499" y="-10"/>
      <point x="547" y="25"/>
      <point x="547" y="102" type="curve" smooth="yes"/>
      <point x="547" y="326" type="line" smooth="yes"/>
      <point x="547" y="437"/>
      <point x="460" y="526"/>
      <point x="269" y="526" type="curve" smooth="yes"/>
      <point x="130" y="526"/>
      <point x="68" y="479"/>
      <point x="68" y="420" type="curve" smooth="yes"/>
      <point x="68" y="350"/>
      <point x="153" y="313"/>
      <point x="259" y="313" type="curve" smooth="yes"/>
      <point x="436" y="313"/>
      <point x="556" y="417"/>
      <point x="556" y="525" type="curve" smooth="yes"/>
      <point x="556" y="532" type="line"/>
      <point x="478" y="532" type="line"/>
      <point x="478" y="526" type="line" smooth="yes"/>
      <point x="478" y="456"/>
      <point x="406" y="376"/>
      <point x="254" y="376" type="curve" smooth="yes"/>
      <point x="198" y="376"/>
      <point x="142" y="387"/>
      <point x="142" y="418" type="curve" smooth="yes"/>
      <point x="142" y="448"/>
      <point x="193" y="463"/>
      <point x="259" y="463" type="curve" smooth="yes"/>
      <point x="365" y="463"/>
      <point x="459" y="423"/>
      <point x="459" y="326" type="curve" smooth="yes"/>
      <point x="459" y="87" type="line" smooth="yes"/>
      <point x="459" y="62"/>
      <point x="448" y="50"/>
      <point x="426" y="50" type="curve" smooth="yes"/>
      <point x="407" y="50"/>
      <point x="393" y="58"/>
      <point x="385" y="81" type="curve" smooth="yes"/>
      <point x="353" y="178" type="line" smooth="yes"/>
      <point x="335" y="233"/>
      <point x="290" y="268"/>
      <point x="209" y="268" type="curve" smooth="yes"/>
      <point x="97" y="268"/>
      <point x="60" y="200"/>
      <point x="60" y="126" type="curve" smooth="yes"/>
      <point x="60" y="50"/>
      <point x="98" y="-10"/>
    </contour>
  </outline>
</glyph>
<glyph name="hoHaan-lao" format="2">
  <advance width="720"/>
  <unicode hex="0EAB"/>
  <note>
uni0EAB
</note>
  <anchor x="638" y="0" name="bottom"/>
  <anchor x="628" y="504" name="top"/>
  <anchor x="387" y="504" name="top2"/>
  <outline>
    <contour>
      <point x="240" y="-10" type="curve" smooth="yes"/>
      <point x="358" y="-10"/>
      <point x="401" y="54"/>
      <point x="401" y="149" type="curve" smooth="yes"/>
      <point x="401" y="369" type="line" smooth="yes"/>
      <point x="401" y="415"/>
      <point x="423" y="454"/>
      <point x="480" y="454" type="curve" smooth="yes"/>
      <point x="527" y="454"/>
      <point x="550" y="427"/>
      <point x="550" y="379" type="curve" smooth="yes"/>
      <point x="550" y="0" type="line"/>
      <point x="638" y="0" type="line"/>
      <point x="638" y="393" type="line" smooth="yes"/>
      <point x="638" y="477"/>
      <point x="591" y="526"/>
      <point x="515" y="526" type="curve" smooth="yes"/>
      <point x="461" y="526"/>
      <point x="418" y="502"/>
      <point x="390" y="472" type="curve"/>
      <point x="386" y="472" type="line"/>
      <point x="378" y="493"/>
      <point x="356" y="515"/>
      <point x="333" y="526" type="curve"/>
      <point x="271" y="482" type="line"/>
      <point x="305" y="458"/>
      <point x="315" y="433"/>
      <point x="315" y="399" type="curve" smooth="yes"/>
      <point x="315" y="143" type="line" smooth="yes"/>
      <point x="315" y="89"/>
      <point x="291" y="62"/>
      <point x="241" y="62" type="curve" smooth="yes"/>
      <point x="190" y="62"/>
      <point x="166" y="89"/>
      <point x="166" y="143" type="curve" smooth="yes"/>
      <point x="166" y="516" type="line"/>
      <point x="78" y="516" type="line"/>
      <point x="78" y="149" type="line" smooth="yes"/>
      <point x="78" y="54"/>
      <point x="123" y="-10"/>
    </contour>
  </outline>
</glyph>
<glyph name="oO-lao" format="2">
  <advance width="614"/>
  <unicode hex="0EAD"/>
  <note>
uni0EAD
</note>
  <anchor x="513" y="0" name="bottom"/>
  <anchor x="513" y="504" name="top"/>
  <anchor x="309" y="504" name="top2"/>
  <outline>
    <contour>
      <point x="303" y="-10" type="curve" smooth="yes"/>
      <point x="446" y="-10"/>
      <point x="556" y="60"/>
      <point x="556" y="253" type="curve" smooth="yes"/>
      <point x="556" y="453"/>
      <point x="438" y="526"/>
      <point x="288" y="526" type="curve" smooth="yes"/>
      <point x="143" y="526"/>
      <point x="68" y="459"/>
      <point x="68" y="371" type="curve" smooth="yes"/>
      <point x="68" y="282"/>
      <point x="147" y="223"/>
      <point x="280" y="223" type="curve" smooth="yes"/>
      <point x="357" y="223"/>
      <point x="438" y="243"/>
      <point x="500" y="285" type="curve"/>
      <point x="467" y="341" type="line"/>
      <point x="411" y="304"/>
      <point x="339" y="291"/>
      <point x="283" y="291" type="curve" smooth="yes"/>
      <point x="199" y="291"/>
      <point x="148" y="320"/>
      <point x="148" y="369" type="curve" smooth="yes"/>
      <point x="148" y="423"/>
      <point x="209" y="454"/>
      <point x="289" y="454" type="curve" smooth="yes"/>
      <point x="409" y="454"/>
      <point x="468" y="385"/>
      <point x="468" y="253" type="curve" smooth="yes"/>
      <point x="468" y="125"/>
      <point x="412" y="62"/>
      <point x="303" y="62" type="curve" smooth="yes"/>
      <point x="223" y="62"/>
      <point x="149" y="96"/>
      <point x="149" y="150" type="curve" smooth="yes"/>
      <point x="149" y="159"/>
      <point x="151" y="170"/>
      <point x="157" y="181" type="curve"/>
      <point x="85" y="202" type="line"/>
      <point x="76" y="189"/>
      <point x="68" y="174"/>
      <point x="68" y="148" type="curve" smooth="yes"/>
      <point x="68" y="52"/>
      <point x="169" y="-10"/>
    </contour>
  </outline>
</glyph>
<glyph name="hoHeuan-lao" format="2">
  <advance width="609"/>
  <unicode hex="0EAE"/>
  <note>
uni0EAE
</note>
  <anchor x="516" y="0" name="bottom"/>
  <anchor x="517" y="504" name="top"/>
  <anchor x="314" y="504" name="top2"/>
  <outline>
    <contour>
      <point x="299" y="-10" type="curve" smooth="yes"/>
      <point x="463" y="-10"/>
      <point x="536" y="63"/>
      <point x="536" y="148" type="curve" smooth="yes"/>
      <point x="536" y="254"/>
      <point x="419" y="286"/>
      <point x="303" y="318" type="curve" smooth="yes"/>
      <point x="212" y="343"/>
      <point x="153" y="358"/>
      <point x="153" y="409" type="curve" smooth="yes"/>
      <point x="153" y="438"/>
      <point x="172" y="454"/>
      <point x="207" y="454" type="curve" smooth="yes"/>
      <point x="279" y="454"/>
      <point x="351" y="389"/>
      <point x="434" y="389" type="curve" smooth="yes"/>
      <point x="487" y="389"/>
      <point x="536" y="415"/>
      <point x="536" y="492" type="curve" smooth="yes"/>
      <point x="536" y="516" type="line"/>
      <point x="449" y="516" type="line"/>
      <point x="449" y="494" type="line" smooth="yes"/>
      <point x="449" y="473"/>
      <point x="441" y="462"/>
      <point x="419" y="462" type="curve" smooth="yes"/>
      <point x="365" y="462"/>
      <point x="305" y="526"/>
      <point x="205" y="526" type="curve" smooth="yes"/>
      <point x="132" y="526"/>
      <point x="68" y="492"/>
      <point x="68" y="410" type="curve" smooth="yes"/>
      <point x="68" y="310"/>
      <point x="163" y="281"/>
      <point x="279" y="249" type="curve" smooth="yes"/>
      <point x="398" y="216"/>
      <point x="451" y="203"/>
      <point x="451" y="147" type="curve" smooth="yes"/>
      <point x="451" y="91"/>
      <point x="398" y="61"/>
      <point x="297" y="61" type="curve" smooth="yes"/>
      <point x="201" y="61"/>
      <point x="153" y="88"/>
      <point x="153" y="143" type="curve" smooth="yes"/>
      <point x="153" y="161"/>
      <point x="158" y="174"/>
      <point x="170" y="186" type="curve"/>
      <point x="100" y="220" type="line"/>
      <point x="83" y="205"/>
      <point x="68" y="181"/>
      <point x="68" y="142" type="curve" smooth="yes"/>
      <point x="68" y="55"/>
      <point x="145" y="-10"/>
    </contour>
  </outline>
</glyph>
<glyph name="ellipsis-lao" format="2">
  <advance width="572"/>
  <unicode hex="0EAF"/>
  <note>
uni0EAF
</note>
  <outline>
    <contour>
      <point x="402" y="0" type="line"/>
      <point x="490" y="0" type="line"/>
      <point x="490" y="516" type="line"/>
      <point x="411" y="516" type="line"/>
      <point x="411" y="506" type="line" smooth="yes"/>
      <point x="411" y="435"/>
      <point x="347" y="401"/>
      <point x="267" y="401" type="curve" smooth="yes"/>
      <point x="195" y="401"/>
      <point x="157" y="428"/>
      <point x="157" y="498" type="curve" smooth="yes"/>
      <point x="157" y="516" type="line"/>
      <point x="69" y="516" type="line"/>
      <point x="69" y="498" type="line" smooth="yes"/>
      <point x="69" y="381"/>
      <point x="136" y="329"/>
      <point x="250" y="329" type="curve" smooth="yes"/>
      <point x="325" y="329"/>
      <point x="373" y="351"/>
      <point x="397" y="374" type="curve"/>
      <point x="402" y="374" type="line"/>
    </contour>
  </outline>
</glyph>
<glyph name="aVowel-lao" format="2">
  <advance width="366"/>
  <unicode hex="0EB0"/>
  <note>
uni0EB0
</note>
  <outline>
    <contour>
      <point x="145" y="332" type="curve" smooth="yes"/>
      <point x="307" y="332" type="line"/>
      <point x="307" y="402" type="line"/>
      <point x="149" y="402" type="line" smooth="yes"/>
      <point x="125" y="402"/>
      <point x="117" y="416"/>
      <point x="117" y="433" type="curve" smooth="yes"/>
      <point x="117" y="446"/>
      <point x="121" y="460"/>
      <point x="126" y="469" type="curve"/>
      <point x="50" y="469" type="line"/>
      <point x="40" y="456"/>
      <point x="34" y="432"/>
      <point x="34" y="414" type="curve" smooth="yes"/>
      <point x="34" y="372"/>
      <point x="64" y="332"/>
    </contour>
    <contour>
      <point x="145" y="40" type="curve" smooth="yes"/>
      <point x="307" y="40" type="line"/>
      <point x="307" y="111" type="line"/>
      <point x="149" y="111" type="line" smooth="yes"/>
      <point x="125" y="111"/>
      <point x="117" y="124"/>
      <point x="117" y="142" type="curve" smooth="yes"/>
      <point x="117" y="155"/>
      <point x="121" y="168"/>
      <point x="126" y="178" type="curve"/>
      <point x="50" y="178" type="line"/>
      <point x="40" y="164"/>
      <point x="34" y="141"/>
      <point x="34" y="122" type="curve" smooth="yes"/>
      <point x="34" y="80"/>
      <point x="64" y="40"/>
    </contour>
  </outline>
</glyph>
<glyph name="maiKanVowel-lao" format="2">
  <unicode hex="0EB1"/>
  <note>
uni0EB1
</note>
  <anchor x="-82" y="504" name="_top"/>
  <anchor x="-85" y="736" name="top"/>
  <outline>
    <contour>
      <point x="-241" y="608" type="curve" smooth="yes"/>
      <point x="41" y="608" type="line"/>
      <point x="41" y="676" type="line"/>
      <point x="-217" y="676" type="line" smooth="yes"/>
      <point x="-249" y="676"/>
      <point x="-263" y="692"/>
      <point x="-263" y="713" type="curve" smooth="yes"/>
      <point x="-263" y="724"/>
      <point x="-259" y="737"/>
      <point x="-253" y="749" type="curve"/>
      <point x="-328" y="749" type="line"/>
      <point x="-338" y="734"/>
      <point x="-344" y="711"/>
      <point x="-344" y="687" type="curve" smooth="yes"/>
      <point x="-344" y="634"/>
      <point x="-312" y="608"/>
    </contour>
  </outline>
</glyph>
<glyph name="aaVowel-lao" format="2">
  <advance width="318"/>
  <unicode hex="0EB2"/>
  <note>
uni0EB2
</note>
  <outline>
    <contour>
      <point x="148" y="0" type="line"/>
      <point x="236" y="0" type="line"/>
      <point x="236" y="411" type="line" smooth="yes"/>
      <point x="236" y="492"/>
      <point x="183" y="526"/>
      <point x="108" y="526" type="curve" smooth="yes"/>
      <point x="69" y="526"/>
      <point x="27" y="517"/>
      <point x="1" y="505" type="curve"/>
      <point x="15" y="441" type="line"/>
      <point x="32" y="448"/>
      <point x="58" y="457"/>
      <point x="88" y="457" type="curve" smooth="yes"/>
      <point x="129" y="457"/>
      <point x="148" y="441"/>
      <point x="148" y="398" type="curve" smooth="yes"/>
    </contour>
  </outline>
</glyph>
<glyph name="amVowel-lao" format="2">
  <advance width="318"/>
  <unicode hex="0EB3"/>
  <note>
uni0EB3
</note>
  <anchor x="-82" y="788" name="top"/>
  <outline>
    <contour>
      <point x="148" y="0" type="line"/>
      <point x="236" y="0" type="line"/>
      <point x="236" y="411" type="line" smooth="yes"/>
      <point x="236" y="492"/>
      <point x="183" y="526"/>
      <point x="108" y="526" type="curve" smooth="yes"/>
      <point x="69" y="526"/>
      <point x="27" y="517"/>
      <point x="1" y="505" type="curve"/>
      <point x="15" y="441" type="line"/>
      <point x="32" y="448"/>
      <point x="58" y="457"/>
      <point x="88" y="457" type="curve" smooth="yes"/>
      <point x="129" y="457"/>
      <point x="148" y="441"/>
      <point x="148" y="398" type="curve" smooth="yes"/>
    </contour>
    <contour>
      <point x="-138" y="595" type="curve" smooth="yes"/>
      <point x="-75" y="595"/>
      <point x="-33" y="634"/>
      <point x="-33" y="692" type="curve" smooth="yes"/>
      <point x="-33" y="750"/>
      <point x="-75" y="788"/>
      <point x="-138" y="788" type="curve" smooth="yes"/>
      <point x="-200" y="788"/>
      <point x="-241" y="750"/>
      <point x="-241" y="692" type="curve" smooth="yes"/>
      <point x="-241" y="634"/>
      <point x="-200" y="595"/>
    </contour>
    <contour>
      <point x="-138" y="648" type="curve" smooth="yes"/>
      <point x="-165" y="648"/>
      <point x="-183" y="665"/>
      <point x="-183" y="692" type="curve" smooth="yes"/>
      <point x="-183" y="719"/>
      <point x="-165" y="736"/>
      <point x="-137" y="736" type="curve" smooth="yes"/>
      <point x="-110" y="736"/>
      <point x="-92" y="719"/>
      <point x="-92" y="693" type="curve" smooth="yes"/>
      <point x="-92" y="666"/>
      <point x="-110" y="648"/>
    </contour>
  </outline>
</glyph>
<glyph name="iVowel-lao" format="2">
  <unicode hex="0EB4"/>
  <note>
uni0EB4
</note>
  <anchor x="-82" y="504" name="_top"/>
  <anchor x="-138" y="810" name="top"/>
  <outline>
    <contour>
      <point x="-377" y="598" type="curve"/>
      <point x="-364" y="648" type="line"/>
      <point x="-368" y="649"/>
      <point x="-433" y="656"/>
      <point x="-433" y="700" type="curve" smooth="yes"/>
      <point x="-433" y="738"/>
      <point x="-386" y="761"/>
      <point x="-300" y="761" type="curve" smooth="yes"/>
      <point x="-214" y="761"/>
      <point x="-168" y="738"/>
      <point x="-168" y="700" type="curve" smooth="yes"/>
      <point x="-168" y="656"/>
      <point x="-232" y="649"/>
      <point x="-237" y="648" type="curve"/>
      <point x="-223" y="598" type="line"/>
      <point x="-156" y="598"/>
      <point x="-86" y="632"/>
      <point x="-86" y="699" type="curve" smooth="yes"/>
      <point x="-86" y="779"/>
      <point x="-187" y="822"/>
      <point x="-300" y="822" type="curve" smooth="yes"/>
      <point x="-413" y="822"/>
      <point x="-514" y="779"/>
      <point x="-514" y="699" type="curve" smooth="yes"/>
      <point x="-514" y="633"/>
      <point x="-447" y="598"/>
    </contour>
  </outline>
</glyph>
<glyph name="iiVowel-lao" format="2">
  <unicode hex="0EB5"/>
  <note>
uni0EB5
</note>
  <anchor x="-82" y="504" name="_top"/>
  <anchor x="-138" y="810" name="top"/>
  <outline>
    <contour>
      <point x="-376" y="598" type="curve"/>
      <point x="-363" y="648" type="line"/>
      <point x="-368" y="649"/>
      <point x="-433" y="656"/>
      <point x="-433" y="700" type="curve" smooth="yes"/>
      <point x="-433" y="738"/>
      <point x="-386" y="761"/>
      <point x="-300" y="761" type="curve" smooth="yes"/>
      <point x="-213" y="761"/>
      <point x="-168" y="738"/>
      <point x="-168" y="700" type="curve" smooth="yes"/>
      <point x="-168" y="656"/>
      <point x="-231" y="649"/>
      <point x="-237" y="648" type="curve"/>
      <point x="-223" y="598" type="line"/>
      <point x="-34" y="598" type="line"/>
      <point x="-34" y="658" type="line"/>
      <point x="-67" y="658" type="line" smooth="yes"/>
      <point x="-79" y="658"/>
      <point x="-102" y="657"/>
      <point x="-114" y="653" type="curve"/>
      <point x="-114" y="655" type="line"/>
      <point x="-93" y="668"/>
      <point x="-85" y="683"/>
      <point x="-85" y="703" type="curve" smooth="yes"/>
      <point x="-85" y="776"/>
      <point x="-185" y="822"/>
      <point x="-301" y="822" type="curve" smooth="yes"/>
      <point x="-413" y="822"/>
      <point x="-514" y="779"/>
      <point x="-514" y="699" type="curve" smooth="yes"/>
      <point x="-514" y="633"/>
      <point x="-447" y="598"/>
    </contour>
  </outline>
</glyph>
<glyph name="euVowel-lao" format="2">
  <unicode hex="0EB6"/>
  <note>
uni0EB6
</note>
  <anchor x="-82" y="504" name="_top"/>
  <anchor x="-138" y="810" name="top"/>
  <outline>
    <contour>
      <point x="-377" y="598" type="curve"/>
      <point x="-364" y="648" type="line"/>
      <point x="-368" y="649"/>
      <point x="-433" y="656"/>
      <point x="-433" y="700" type="curve" smooth="yes"/>
      <point x="-433" y="738"/>
      <point x="-386" y="761"/>
      <point x="-300" y="761" type="curve" smooth="yes"/>
      <point x="-214" y="761"/>
      <point x="-168" y="738"/>
      <point x="-168" y="700" type="curve" smooth="yes"/>
      <point x="-168" y="656"/>
      <point x="-232" y="649"/>
      <point x="-237" y="648" type="curve"/>
      <point x="-223" y="598" type="line"/>
      <point x="-156" y="598"/>
      <point x="-86" y="632"/>
      <point x="-86" y="699" type="curve" smooth="yes"/>
      <point x="-86" y="779"/>
      <point x="-187" y="822"/>
      <point x="-300" y="822" type="curve" smooth="yes"/>
      <point x="-413" y="822"/>
      <point x="-514" y="779"/>
      <point x="-514" y="699" type="curve" smooth="yes"/>
      <point x="-514" y="633"/>
      <point x="-447" y="598"/>
    </contour>
    <contour>
      <point x="-301" y="652" type="curve" smooth="yes"/>
      <point x="-276" y="652"/>
      <point x="-260" y="668"/>
      <point x="-260" y="692" type="curve" smooth="yes"/>
      <point x="-260" y="717"/>
      <point x="-276" y="734"/>
      <point x="-301" y="734" type="curve" smooth="yes"/>
      <point x="-327" y="734"/>
      <point x="-343" y="717"/>
      <point x="-343" y="692" type="curve" smooth="yes"/>
      <point x="-343" y="668"/>
      <point x="-327" y="652"/>
    </contour>
  </outline>
</glyph>
<glyph name="uVowel-lao" format="2">
  <unicode hex="0EB8"/>
  <note>
uni0EB8
</note>
  <anchor x="-82" y="0" name="_bottom"/>
  <outline>
    <contour>
      <point x="-155" y="-244" type="line"/>
      <point x="-82" y="-244" type="line"/>
      <point x="-82" y="-147" type="line" smooth="yes"/>
      <point x="-82" y="-87"/>
      <point x="-112" y="-68"/>
      <point x="-153" y="-68" type="curve" smooth="yes"/>
      <point x="-176" y="-68"/>
      <point x="-205" y="-74"/>
      <point x="-220" y="-81" type="curve"/>
      <point x="-207" y="-134" type="line"/>
      <point x="-199" y="-132"/>
      <point x="-189" y="-129"/>
      <point x="-179" y="-129" type="curve" smooth="yes"/>
      <point x="-164" y="-129"/>
      <point x="-155" y="-136"/>
      <point x="-155" y="-155" type="curve" smooth="yes"/>
    </contour>
  </outline>
</glyph>
<glyph name="uuVowel-lao" format="2">
  <unicode hex="0EB9"/>
  <note>
uni0EB9
</note>
  <anchor x="-82" y="0" name="_bottom"/>
  <outline>
    <contour>
      <point x="-211" y="-249" type="curve" smooth="yes"/>
      <point x="-124" y="-249"/>
      <point x="-82" y="-214"/>
      <point x="-82" y="-157" type="curve" smooth="yes"/>
      <point x="-82" y="-71" type="line"/>
      <point x="-159" y="-71" type="line"/>
      <point x="-159" y="-154" type="line" smooth="yes"/>
      <point x="-159" y="-177"/>
      <point x="-173" y="-191"/>
      <point x="-211" y="-191" type="curve" smooth="yes"/>
      <point x="-251" y="-191"/>
      <point x="-261" y="-175"/>
      <point x="-261" y="-154" type="curve" smooth="yes"/>
      <point x="-261" y="-124" type="line" smooth="yes"/>
      <point x="-261" y="-90"/>
      <point x="-280" y="-68"/>
      <point x="-326" y="-68" type="curve" smooth="yes"/>
      <point x="-339" y="-68"/>
      <point x="-358" y="-70"/>
      <point x="-375" y="-76" type="curve"/>
      <point x="-369" y="-131" type="line"/>
      <point x="-364" y="-130"/>
      <point x="-361" y="-129"/>
      <point x="-354" y="-129" type="curve" smooth="yes"/>
      <point x="-341" y="-129"/>
      <point x="-337" y="-135"/>
      <point x="-337" y="-148" type="curve" smooth="yes"/>
      <point x="-337" y="-162" type="line" smooth="yes"/>
      <point x="-337" y="-216"/>
      <point x="-296" y="-249"/>
    </contour>
  </outline>
</glyph>
<glyph name="maiKonVowel-lao" format="2">
  <unicode hex="0EBB"/>
  <note>
uni0EBB
</note>
  <anchor x="-82" y="504" name="_top"/>
  <anchor x="-82" y="764" name="top"/>
  <outline>
    <contour>
      <point x="-329" y="608" type="curve"/>
      <point x="-254" y="608" type="line"/>
      <point x="-260" y="620"/>
      <point x="-263" y="633"/>
      <point x="-263" y="644" type="curve" smooth="yes"/>
      <point x="-263" y="665"/>
      <point x="-250" y="681"/>
      <point x="-218" y="681" type="curve" smooth="yes"/>
      <point x="42" y="681" type="line"/>
      <point x="42" y="749" type="line"/>
      <point x="-242" y="749" type="line" smooth="yes"/>
      <point x="-313" y="749"/>
      <point x="-345" y="723"/>
      <point x="-345" y="669" type="curve" smooth="yes"/>
      <point x="-345" y="645"/>
      <point x="-339" y="623"/>
    </contour>
  </outline>
</glyph>
<glyph name="loVowel-lao" format="2">
  <unicode hex="0EBC"/>
  <note>
uni0EBC
</note>
  <anchor x="-82" y="0" name="_bottom"/>
  <anchor x="-82" y="-151" name="bottom"/>
  <outline>
    <contour>
      <point x="-421" y="-178" type="curve"/>
      <point x="-342" y="-178" type="line"/>
      <point x="-349" y="-168"/>
      <point x="-352" y="-157"/>
      <point x="-352" y="-148" type="curve" smooth="yes"/>
      <point x="-352" y="-133"/>
      <point x="-344" y="-127"/>
      <point x="-322" y="-127" type="curve" smooth="yes"/>
      <point x="-275" y="-127"/>
      <point x="-226" y="-156"/>
      <point x="-167" y="-156" type="curve" smooth="yes"/>
      <point x="-138" y="-156"/>
      <point x="-109" y="-149"/>
      <point x="-83" y="-137" type="curve"/>
      <point x="-83" y="-72" type="line"/>
      <point x="-109" y="-85"/>
      <point x="-137" y="-92"/>
      <point x="-165" y="-92" type="curve" smooth="yes"/>
      <point x="-222" y="-92"/>
      <point x="-266" y="-63"/>
      <point x="-337" y="-63" type="curve" smooth="yes"/>
      <point x="-401" y="-63"/>
      <point x="-436" y="-86"/>
      <point x="-436" y="-132" type="curve" smooth="yes"/>
      <point x="-436" y="-149"/>
      <point x="-431" y="-165"/>
    </contour>
  </outline>
</glyph>
<glyph name="nyoVowel-lao" format="2">
  <advance width="568"/>
  <unicode hex="0EBD"/>
  <note>
uni0EBD
</note>
  <anchor x="474" y="-236" name="bottom"/>
  <anchor x="516" y="504" name="top"/>
  <anchor x="284" y="504" name="top2"/>
  <outline>
    <contour>
      <point x="264" y="-236" type="curve" smooth="yes"/>
      <point x="419" y="-236"/>
      <point x="494" y="-154"/>
      <point x="494" y="-63" type="curve" smooth="yes"/>
      <point x="494" y="112" type="line" smooth="yes"/>
      <point x="494" y="235"/>
      <point x="386" y="280"/>
      <point x="261" y="317" type="curve" smooth="yes"/>
      <point x="179" y="341"/>
      <point x="111" y="356"/>
      <point x="111" y="411" type="curve" smooth="yes"/>
      <point x="111" y="439"/>
      <point x="130" y="454"/>
      <point x="165" y="454" type="curve" smooth="yes"/>
      <point x="238" y="454"/>
      <point x="309" y="390"/>
      <point x="392" y="390" type="curve" smooth="yes"/>
      <point x="445" y="390"/>
      <point x="494" y="416"/>
      <point x="494" y="493" type="curve" smooth="yes"/>
      <point x="494" y="516" type="line"/>
      <point x="407" y="516" type="line"/>
      <point x="407" y="495" type="line" smooth="yes"/>
      <point x="407" y="474"/>
      <point x="399" y="463"/>
      <point x="377" y="463" type="curve" smooth="yes"/>
      <point x="323" y="463"/>
      <point x="263" y="526"/>
      <point x="163" y="526" type="curve" smooth="yes"/>
      <point x="90" y="526"/>
      <point x="26" y="493"/>
      <point x="26" y="410" type="curve" smooth="yes"/>
      <point x="26" y="309"/>
      <point x="120" y="281"/>
      <point x="237" y="248" type="curve" smooth="yes"/>
      <point x="353" y="215"/>
      <point x="406" y="179"/>
      <point x="406" y="107" type="curve" smooth="yes"/>
      <point x="406" y="-63" type="line" smooth="yes"/>
      <point x="406" y="-129"/>
      <point x="347" y="-165"/>
      <point x="259" y="-165" type="curve" smooth="yes"/>
      <point x="174" y="-165"/>
      <point x="126" y="-132"/>
      <point x="126" y="-80" type="curve" smooth="yes"/>
      <point x="126" y="-61"/>
      <point x="132" y="-50"/>
      <point x="141" y="-39" type="curve"/>
      <point x="66" y="-4" type="line"/>
      <point x="47" y="-26"/>
      <point x="40" y="-49"/>
      <point x="40" y="-77" type="curve" smooth="yes"/>
      <point x="40" y="-181"/>
      <point x="136" y="-236"/>
    </contour>
  </outline>
</glyph>
<glyph name="eVowel-lao" format="2">
  <advance width="279"/>
  <unicode hex="0EC0"/>
  <note>
uni0EC0
</note>
  <outline>
    <contour>
      <point x="188" y="-10" type="curve" smooth="yes"/>
      <point x="210" y="-10"/>
      <point x="234" y="-6"/>
      <point x="259" y="4" type="curve"/>
      <point x="246" y="67" type="line"/>
      <point x="235" y="64"/>
      <point x="223" y="62"/>
      <point x="210" y="62" type="curve" smooth="yes"/>
      <point x="178" y="62"/>
      <point x="166" y="74"/>
      <point x="166" y="102" type="curve" smooth="yes"/>
      <point x="166" y="516" type="line"/>
      <point x="78" y="516" type="line"/>
      <point x="78" y="97" type="line" smooth="yes"/>
      <point x="78" y="18"/>
      <point x="131" y="-10"/>
    </contour>
  </outline>
</glyph>
<glyph name="aeVowel-lao" format="2">
  <advance width="509"/>
  <unicode hex="0EC1"/>
  <note>
uni0EC1
</note>
  <outline>
    <contour>
      <point x="188" y="-10" type="curve" smooth="yes"/>
      <point x="210" y="-10"/>
      <point x="234" y="-6"/>
      <point x="259" y="4" type="curve"/>
      <point x="246" y="67" type="line"/>
      <point x="235" y="64"/>
      <point x="223" y="62"/>
      <point x="210" y="62" type="curve" smooth="yes"/>
      <point x="178" y="62"/>
      <point x="166" y="74"/>
      <point x="166" y="102" type="curve" smooth="yes"/>
      <point x="166" y="516" type="line"/>
      <point x="78" y="516" type="line"/>
      <point x="78" y="97" type="line" smooth="yes"/>
      <point x="78" y="18"/>
      <point x="131" y="-10"/>
    </contour>
    <contour>
      <point x="418" y="-10" type="curve" smooth="yes"/>
      <point x="440" y="-10"/>
      <point x="464" y="-6"/>
      <point x="489" y="4" type="curve"/>
      <point x="476" y="67" type="line"/>
      <point x="465" y="64"/>
      <point x="453" y="62"/>
      <point x="440" y="62" type="curve" smooth="yes"/>
      <point x="408" y="62"/>
      <point x="396" y="74"/>
      <point x="396" y="102" type="curve" smooth="yes"/>
      <point x="396" y="516" type="line"/>
      <point x="308" y="516" type="line"/>
      <point x="308" y="97" type="line" smooth="yes"/>
      <point x="308" y="18"/>
      <point x="361" y="-10"/>
    </contour>
  </outline>
</glyph>
<glyph name="oVowel-lao" format="2">
  <advance width="274"/>
  <unicode hex="0EC2"/>
  <note>
uni0EC2
</note>
  <outline>
    <contour>
      <point x="185" y="-10" type="curve" smooth="yes"/>
      <point x="206" y="-10"/>
      <point x="230" y="-6"/>
      <point x="255" y="4" type="curve"/>
      <point x="242" y="67" type="line"/>
      <point x="231" y="64"/>
      <point x="219" y="62"/>
      <point x="206" y="62" type="curve" smooth="yes"/>
      <point x="174" y="62"/>
      <point x="163" y="74"/>
      <point x="163" y="102" type="curve" smooth="yes"/>
      <point x="163" y="505" type="line" smooth="yes"/>
      <point x="163" y="621"/>
      <point x="50" y="646"/>
      <point x="50" y="696" type="curve" smooth="yes"/>
      <point x="50" y="709"/>
      <point x="58" y="739"/>
      <point x="104" y="739" type="curve" smooth="yes"/>
      <point x="254" y="739" type="line"/>
      <point x="254" y="809" type="line"/>
      <point x="101" y="809" type="line" smooth="yes"/>
      <point x="10" y="809"/>
      <point x="-34" y="765"/>
      <point x="-34" y="704" type="curve" smooth="yes"/>
      <point x="-34" y="607"/>
      <point x="75" y="605"/>
      <point x="75" y="512" type="curve" smooth="yes"/>
      <point x="75" y="97" type="line" smooth="yes"/>
      <point x="75" y="18"/>
      <point x="128" y="-10"/>
    </contour>
  </outline>
</glyph>
<glyph name="ayMaiMuanVowel-lao" format="2">
  <advance width="274"/>
  <unicode hex="0EC3"/>
  <note>
uni0EC3
</note>
  <outline>
    <contour>
      <point x="184" y="-10" type="curve" smooth="yes"/>
      <point x="205" y="-10"/>
      <point x="230" y="-6"/>
      <point x="255" y="4" type="curve"/>
      <point x="242" y="67" type="line"/>
      <point x="231" y="64"/>
      <point x="218" y="62"/>
      <point x="206" y="62" type="curve" smooth="yes"/>
      <point x="174" y="62"/>
      <point x="163" y="74"/>
      <point x="163" y="102" type="curve" smooth="yes"/>
      <point x="163" y="505" type="line" smooth="yes"/>
      <point x="163" y="592"/>
      <point x="265" y="598"/>
      <point x="265" y="694" type="curve" smooth="yes"/>
      <point x="265" y="777"/>
      <point x="189" y="818"/>
      <point x="115" y="818" type="curve" smooth="yes"/>
      <point x="40" y="818"/>
      <point x="-35" y="777"/>
      <point x="-35" y="691" type="curve" smooth="yes"/>
      <point x="-35" y="670" type="line"/>
      <point x="48" y="670" type="line"/>
      <point x="48" y="691" type="line" smooth="yes"/>
      <point x="48" y="726"/>
      <point x="74" y="746"/>
      <point x="114" y="746" type="curve" smooth="yes"/>
      <point x="155" y="746"/>
      <point x="181" y="725"/>
      <point x="181" y="694" type="curve" smooth="yes"/>
      <point x="181" y="632"/>
      <point x="75" y="605"/>
      <point x="75" y="498" type="curve" smooth="yes"/>
      <point x="75" y="97" type="line" smooth="yes"/>
      <point x="75" y="18"/>
      <point x="127" y="-10"/>
    </contour>
  </outline>
</glyph>
<glyph name="aiMaiMayVowel-lao" format="2">
  <advance width="318"/>
  <unicode hex="0EC4"/>
  <note>
uni0EC4
</note>
  <outline>
    <contour>
      <point x="222" y="-10" type="curve" smooth="yes"/>
      <point x="244" y="-10"/>
      <point x="268" y="-6"/>
      <point x="293" y="4" type="curve"/>
      <point x="280" y="67" type="line"/>
      <point x="269" y="64"/>
      <point x="257" y="62"/>
      <point x="244" y="62" type="curve" smooth="yes"/>
      <point x="212" y="62"/>
      <point x="200" y="74"/>
      <point x="200" y="102" type="curve" smooth="yes"/>
      <point x="200" y="532" type="line" smooth="yes"/>
      <point x="200" y="646"/>
      <point x="240" y="700"/>
      <point x="298" y="722" type="curve"/>
      <point x="298" y="809" type="line"/>
      <point x="6" y="809" type="line"/>
      <point x="-22" y="739" type="line"/>
      <point x="208" y="739" type="line"/>
      <point x="209" y="734" type="line"/>
      <point x="162" y="712"/>
      <point x="112" y="647"/>
      <point x="112" y="515" type="curve" smooth="yes"/>
      <point x="112" y="97" type="line" smooth="yes"/>
      <point x="112" y="18"/>
      <point x="165" y="-10"/>
    </contour>
  </outline>
</glyph>
<glyph name="koLa-lao" format="2">
  <advance width="643"/>
  <unicode hex="0EC6"/>
  <note>
uni0EC6
</note>
  <outline>
    <contour>
      <point x="433" y="-165" type="line"/>
      <point x="521" y="-165" type="line"/>
      <point x="521" y="412" type="line" smooth="yes"/>
      <point x="521" y="487"/>
      <point x="473" y="526"/>
      <point x="405" y="526" type="curve" smooth="yes"/>
      <point x="355" y="526"/>
      <point x="313" y="505"/>
      <point x="289" y="468" type="curve"/>
      <point x="286" y="468" type="line"/>
      <point x="263" y="502"/>
      <point x="224" y="526"/>
      <point x="169" y="526" type="curve" smooth="yes"/>
      <point x="93" y="526"/>
      <point x="44" y="479"/>
      <point x="44" y="394" type="curve" smooth="yes"/>
      <point x="44" y="303"/>
      <point x="100" y="258"/>
      <point x="170" y="258" type="curve" smooth="yes"/>
      <point x="195" y="258"/>
      <point x="221" y="264"/>
      <point x="239" y="273" type="curve"/>
      <point x="226" y="334" type="line"/>
      <point x="215" y="330"/>
      <point x="203" y="328"/>
      <point x="191" y="328" type="curve" smooth="yes"/>
      <point x="156" y="328"/>
      <point x="132" y="344"/>
      <point x="132" y="391" type="curve" smooth="yes"/>
      <point x="132" y="434"/>
      <point x="152" y="454"/>
      <point x="189" y="454" type="curve" smooth="yes"/>
      <point x="229" y="454"/>
      <point x="252" y="429"/>
      <point x="272" y="398" type="curve"/>
      <point x="303" y="398" type="line"/>
      <point x="322" y="428"/>
      <point x="348" y="454"/>
      <point x="386" y="454" type="curve" smooth="yes"/>
      <point x="420" y="454"/>
      <point x="433" y="433"/>
      <point x="433" y="401" type="curve" smooth="yes"/>
    </contour>
  </outline>
</glyph>
<glyph name="maiEk-lao" format="2">
  <unicode hex="0EC8"/>
  <note>
uni0EC8
</note>
  <anchor x="-82" y="504" name="_top"/>
  <anchor x="-84" y="800" name="top"/>
  <outline>
    <contour>
      <point x="-167" y="608" type="line"/>
      <point x="-85" y="608" type="line"/>
      <point x="-85" y="776" type="line"/>
      <point x="-167" y="776" type="line"/>
    </contour>
  </outline>
</glyph>
<glyph name="maiTho-lao" format="2">
  <unicode hex="0EC9"/>
  <note>
uni0EC9
</note>
  <anchor x="-82" y="504" name="_top"/>
  <anchor x="-82" y="797" name="top"/>
  <outline>
    <contour>
      <point x="-332" y="608" type="line"/>
      <point x="-11" y="608" type="line"/>
      <point x="-11" y="674" type="line"/>
      <point x="-201" y="674" type="line"/>
      <point x="-185" y="686"/>
      <point x="-176" y="707"/>
      <point x="-176" y="732" type="curve" smooth="yes"/>
      <point x="-176" y="777"/>
      <point x="-207" y="804"/>
      <point x="-264" y="804" type="curve" smooth="yes"/>
      <point x="-293" y="804"/>
      <point x="-323" y="797"/>
      <point x="-341" y="785" type="curve"/>
      <point x="-323" y="740" type="line"/>
      <point x="-314" y="745"/>
      <point x="-301" y="749"/>
      <point x="-288" y="749" type="curve" smooth="yes"/>
      <point x="-264" y="749"/>
      <point x="-249" y="736"/>
      <point x="-249" y="713" type="curve" smooth="yes"/>
      <point x="-249" y="679"/>
      <point x="-281" y="655"/>
      <point x="-332" y="648" type="curve"/>
    </contour>
  </outline>
</glyph>
<glyph name="maiTi-lao" format="2">
  <unicode hex="0ECA"/>
  <note>
uni0ECA
</note>
  <anchor x="-82" y="504" name="_top"/>
  <anchor x="-82" y="797" name="top"/>
  <outline>
    <contour>
      <point x="-363" y="605" type="curve" smooth="yes"/>
      <point x="-347" y="605"/>
      <point x="-333" y="608"/>
      <point x="-325" y="613" type="curve"/>
      <point x="-332" y="654" type="line"/>
      <point x="-337" y="652"/>
      <point x="-343" y="651"/>
      <point x="-348" y="651" type="curve" smooth="yes"/>
      <point x="-369" y="651"/>
      <point x="-382" y="668"/>
      <point x="-382" y="692" type="curve" smooth="yes"/>
      <point x="-382" y="718"/>
      <point x="-368" y="728"/>
      <point x="-351" y="730" type="curve"/>
      <point x="-293" y="704" type="line"/>
      <point x="-281" y="704" type="line"/>
      <point x="-224" y="730" type="line"/>
      <point x="-205" y="727"/>
      <point x="-193" y="714"/>
      <point x="-193" y="691" type="curve" smooth="yes"/>
      <point x="-193" y="668"/>
      <point x="-206" y="649"/>
      <point x="-229" y="646" type="curve"/>
      <point x="-229" y="608" type="line"/>
      <point x="-53" y="608" type="line"/>
      <point x="-53" y="667" type="line"/>
      <point x="-137" y="667" type="line"/>
      <point x="-128" y="681"/>
      <point x="-122" y="698"/>
      <point x="-122" y="716" type="curve" smooth="yes"/>
      <point x="-122" y="759"/>
      <point x="-159" y="785"/>
      <point x="-223" y="785" type="curve"/>
      <point x="-286" y="750" type="line"/>
      <point x="-355" y="785" type="line"/>
      <point x="-415" y="785"/>
      <point x="-451" y="751"/>
      <point x="-451" y="694" type="curve" smooth="yes"/>
      <point x="-451" y="638"/>
      <point x="-418" y="605"/>
    </contour>
  </outline>
</glyph>
<glyph name="maiCatawa-lao" format="2">
  <unicode hex="0ECB"/>
  <note>
uni0ECB
</note>
  <anchor x="-82" y="504" name="_top"/>
  <anchor x="-82" y="797" name="top"/>
  <outline>
    <contour>
      <point x="-222" y="608" type="line"/>
      <point x="-138" y="608" type="line"/>
      <point x="-138" y="675" type="line"/>
      <point x="-54" y="675" type="line"/>
      <point x="-54" y="735" type="line"/>
      <point x="-138" y="735" type="line"/>
      <point x="-138" y="802" type="line"/>
      <point x="-222" y="802" type="line"/>
      <point x="-222" y="735" type="line"/>
      <point x="-306" y="735" type="line"/>
      <point x="-306" y="675" type="line"/>
      <point x="-222" y="675" type="line"/>
    </contour>
  </outline>
</glyph>
<glyph name="karan-lao" format="2">
  <unicode hex="0ECC"/>
  <note>
uni0ECC
</note>
  <anchor x="-82" y="504" name="_top"/>
  <anchor x="-82" y="797" name="top"/>
  <outline>
    <contour>
      <point x="-278" y="601" type="curve"/>
      <point x="-199" y="612" type="line"/>
      <point x="-207" y="624"/>
      <point x="-212" y="638"/>
      <point x="-212" y="652" type="curve" smooth="yes"/>
      <point x="-212" y="679"/>
      <point x="-195" y="695"/>
      <point x="-168" y="695" type="curve" smooth="yes"/>
      <point x="-33" y="695" type="line"/>
      <point x="-33" y="763" type="line"/>
      <point x="-197" y="763" type="line" smooth="yes"/>
      <point x="-261" y="763"/>
      <point x="-298" y="730"/>
      <point x="-298" y="670" type="curve" smooth="yes"/>
      <point x="-298" y="645"/>
      <point x="-291" y="618"/>
    </contour>
  </outline>
</glyph>
<glyph name="niggahita-lao" format="2">
  <unicode hex="0ECD"/>
  <note>
uni0ECD
</note>
  <anchor x="-306" y="504" name="_top2"/>
  <anchor x="-262" y="788" name="top"/>
  <outline>
    <contour>
      <point x="-306" y="595" type="curve" smooth="yes"/>
      <point x="-243" y="595"/>
      <point x="-201" y="634"/>
      <point x="-201" y="692" type="curve" smooth="yes"/>
      <point x="-201" y="750"/>
      <point x="-243" y="788"/>
      <point x="-306" y="788" type="curve" smooth="yes"/>
      <point x="-368" y="788"/>
      <point x="-409" y="750"/>
      <point x="-409" y="692" type="curve" smooth="yes"/>
      <point x="-409" y="634"/>
      <point x="-368" y="595"/>
    </contour>
    <contour>
      <point x="-306" y="648" type="curve" smooth="yes"/>
      <point x="-333" y="648"/>
      <point x="-351" y="665"/>
      <point x="-351" y="692" type="curve" smooth="yes"/>
      <point x="-351" y="719"/>
      <point x="-334" y="736"/>
      <point x="-306" y="736" type="curve" smooth="yes"/>
      <point x="-279" y="736"/>
      <point x="-260" y="719"/>
      <point x="-260" y="692" type="curve" smooth="yes"/>
      <point x="-260" y="666"/>
      <point x="-278" y="648"/>
    </contour>
  </outline>
</glyph>
<glyph name="zero-lao" format="2">
  <advance width="610"/>
  <unicode hex="0ED0"/>
  <note>
uni0ED0
</note>
  <outline>
    <contour>
      <point x="305" y="-10" type="curve" smooth="yes"/>
      <point x="450" y="-10"/>
      <point x="540" y="67"/>
      <point x="540" y="258" type="curve" smooth="yes"/>
      <point x="540" y="449"/>
      <point x="450" y="526"/>
      <point x="305" y="526" type="curve" smooth="yes"/>
      <point x="160" y="526"/>
      <point x="70" y="449"/>
      <point x="70" y="258" type="curve" smooth="yes"/>
      <point x="70" y="67"/>
      <point x="160" y="-10"/>
    </contour>
    <contour>
      <point x="305" y="62" type="curve" smooth="yes"/>
      <point x="202" y="62"/>
      <point x="158" y="126"/>
      <point x="158" y="258" type="curve" smooth="yes"/>
      <point x="158" y="390"/>
      <point x="202" y="454"/>
      <point x="305" y="454" type="curve" smooth="yes"/>
      <point x="409" y="454"/>
      <point x="452" y="390"/>
      <point x="452" y="258" type="curve" smooth="yes"/>
      <point x="452" y="126"/>
      <point x="409" y="62"/>
    </contour>
  </outline>
</glyph>
<glyph name="one-lao" format="2">
  <advance width="580"/>
  <unicode hex="0ED1"/>
  <note>
uni0ED1
</note>
  <outline>
    <contour>
      <point x="271" y="-10" type="curve" smooth="yes"/>
      <point x="420" y="-10"/>
      <point x="508" y="67"/>
      <point x="508" y="261" type="curve" smooth="yes"/>
      <point x="508" y="454"/>
      <point x="421" y="526"/>
      <point x="279" y="526" type="curve" smooth="yes"/>
      <point x="154" y="526"/>
      <point x="68" y="470"/>
      <point x="68" y="361" type="curve" smooth="yes"/>
      <point x="68" y="259"/>
      <point x="142" y="202"/>
      <point x="254" y="202" type="curve" smooth="yes"/>
      <point x="269" y="202"/>
      <point x="278" y="203"/>
      <point x="284" y="204" type="curve"/>
      <point x="298" y="275" type="line"/>
      <point x="291" y="273"/>
      <point x="274" y="272"/>
      <point x="260" y="272" type="curve" smooth="yes"/>
      <point x="191" y="272"/>
      <point x="156" y="297"/>
      <point x="156" y="359" type="curve" smooth="yes"/>
      <point x="156" y="422"/>
      <point x="193" y="454"/>
      <point x="272" y="454" type="curve" smooth="yes"/>
      <point x="379" y="454"/>
      <point x="420" y="397"/>
      <point x="420" y="262" type="curve" smooth="yes"/>
      <point x="420" y="123"/>
      <point x="376" y="62"/>
      <point x="262" y="62" type="curve" smooth="yes"/>
      <point x="197" y="62"/>
      <point x="148" y="82"/>
      <point x="97" y="107" type="curve"/>
      <point x="97" y="30" type="line"/>
      <point x="142" y="7"/>
      <point x="201" y="-10"/>
    </contour>
  </outline>
</glyph>
<glyph name="two-lao" format="2">
  <advance width="577"/>
  <unicode hex="0ED2"/>
  <note>
uni0ED2
</note>
  <outline>
    <contour>
      <point x="292" y="-10" type="curve" smooth="yes"/>
      <point x="415" y="-10"/>
      <point x="507" y="52"/>
      <point x="507" y="170" type="curve" smooth="yes"/>
      <point x="507" y="278"/>
      <point x="429" y="330"/>
      <point x="303" y="330" type="curve"/>
      <point x="284" y="257" type="line"/>
      <point x="290" y="258"/>
      <point x="296" y="258"/>
      <point x="303" y="258" type="curve" smooth="yes"/>
      <point x="384" y="258"/>
      <point x="419" y="231"/>
      <point x="419" y="168" type="curve" smooth="yes"/>
      <point x="419" y="105"/>
      <point x="385" y="63"/>
      <point x="297" y="63" type="curve" smooth="yes"/>
      <point x="203" y="63"/>
      <point x="149" y="111"/>
      <point x="149" y="252" type="curve" smooth="yes"/>
      <point x="149" y="380"/>
      <point x="194" y="433"/>
      <point x="287" y="496" type="curve" smooth="yes"/>
      <point x="391" y="567"/>
      <point x="477" y="597"/>
      <point x="477" y="677" type="curve" smooth="yes"/>
      <point x="477" y="700" type="line"/>
      <point x="399" y="700" type="line"/>
      <point x="399" y="675" type="line" smooth="yes"/>
      <point x="399" y="624"/>
      <point x="306" y="588"/>
      <point x="234" y="544" type="curve" smooth="yes"/>
      <point x="141" y="487"/>
      <point x="61" y="410"/>
      <point x="61" y="245" type="curve" smooth="yes"/>
      <point x="61" y="65"/>
      <point x="156" y="-10"/>
    </contour>
  </outline>
</glyph>
<glyph name="three-lao" format="2">
  <advance width="589"/>
  <unicode hex="0ED3"/>
  <note>
uni0ED3
</note>
  <outline>
    <contour>
      <point x="91" y="-10" type="curve" smooth="yes"/>
      <point x="134" y="-10"/>
      <point x="182" y="11"/>
      <point x="182" y="52" type="curve" smooth="yes"/>
      <point x="182" y="69" type="line"/>
      <point x="148" y="48" type="line"/>
      <point x="184" y="48" type="line"/>
      <point x="232" y="-2"/>
      <point x="278" y="-10"/>
      <point x="322" y="-10" type="curve" smooth="yes"/>
      <point x="440" y="-10"/>
      <point x="507" y="47"/>
      <point x="507" y="178" type="curve" smooth="yes"/>
      <point x="507" y="341" type="line" smooth="yes"/>
      <point x="507" y="429"/>
      <point x="441" y="484"/>
      <point x="373" y="524" type="curve" smooth="yes"/>
      <point x="306" y="564"/>
      <point x="237" y="586"/>
      <point x="237" y="611" type="curve" smooth="yes"/>
      <point x="237" y="619"/>
      <point x="244" y="627"/>
      <point x="260" y="627" type="curve" smooth="yes"/>
      <point x="268" y="627"/>
      <point x="284" y="624"/>
      <point x="300" y="618" type="curve" smooth="yes"/>
      <point x="493" y="542" type="line"/>
      <point x="493" y="611" type="line"/>
      <point x="313" y="681" type="line" smooth="yes"/>
      <point x="291" y="690"/>
      <point x="266" y="692"/>
      <point x="252" y="692" type="curve" smooth="yes"/>
      <point x="194" y="692"/>
      <point x="162" y="656"/>
      <point x="162" y="616" type="curve" smooth="yes"/>
      <point x="162" y="549"/>
      <point x="250" y="521"/>
      <point x="334" y="463" type="curve" smooth="yes"/>
      <point x="381" y="430"/>
      <point x="419" y="393"/>
      <point x="419" y="334" type="curve" smooth="yes"/>
      <point x="419" y="183" type="line" smooth="yes"/>
      <point x="419" y="104"/>
      <point x="385" y="63"/>
      <point x="312" y="63" type="curve" smooth="yes"/>
      <point x="246" y="63"/>
      <point x="194" y="97"/>
      <point x="194" y="183" type="curve" smooth="yes"/>
      <point x="194" y="410" type="line"/>
      <point x="106" y="410" type="line"/>
      <point x="106" y="100" type="line" smooth="yes"/>
      <point x="106" y="71"/>
      <point x="89" y="60"/>
      <point x="67" y="60" type="curve" smooth="yes"/>
      <point x="57" y="60"/>
      <point x="45" y="62"/>
      <point x="33" y="66" type="curve"/>
      <point x="20" y="4" type="line"/>
      <point x="44" y="-5"/>
      <point x="70" y="-10"/>
    </contour>
  </outline>
</glyph>
<glyph name="four-lao" format="2">
  <advance width="604"/>
  <unicode hex="0ED4"/>
  <note>
uni0ED4
</note>
  <outline>
    <contour>
      <point x="251" y="-10" type="curve" smooth="yes"/>
      <point x="310" y="-10"/>
      <point x="358" y="6"/>
      <point x="405" y="66" type="curve"/>
      <point x="407" y="66" type="line"/>
      <point x="419" y="36"/>
      <point x="442" y="5"/>
      <point x="460" y="-10" type="curve"/>
      <point x="524" y="38" type="line"/>
      <point x="496" y="63"/>
      <point x="469" y="95"/>
      <point x="469" y="164" type="curve" smooth="yes"/>
      <point x="469" y="260" type="line" smooth="yes"/>
      <point x="469" y="290"/>
      <point x="486" y="300"/>
      <point x="507" y="300" type="curve" smooth="yes"/>
      <point x="518" y="300"/>
      <point x="530" y="297"/>
      <point x="542" y="294" type="curve"/>
      <point x="556" y="356" type="line"/>
      <point x="531" y="365"/>
      <point x="506" y="370"/>
      <point x="483" y="370" type="curve" smooth="yes"/>
      <point x="430" y="370"/>
      <point x="381" y="344"/>
      <point x="381" y="268" type="curve" smooth="yes"/>
      <point x="381" y="172" type="line" smooth="yes"/>
      <point x="381" y="85"/>
      <point x="327" y="63"/>
      <point x="267" y="63" type="curve" smooth="yes"/>
      <point x="190" y="63"/>
      <point x="156" y="99"/>
      <point x="156" y="182" type="curve" smooth="yes"/>
      <point x="156" y="296" type="line" smooth="yes"/>
      <point x="156" y="450"/>
      <point x="232" y="454"/>
      <point x="344" y="460" type="curve" smooth="yes"/>
      <point x="420" y="464"/>
      <point x="534" y="478"/>
      <point x="534" y="660" type="curve" smooth="yes"/>
      <point x="534" y="682" type="line"/>
      <point x="455" y="682" type="line"/>
      <point x="455" y="660" type="line" smooth="yes"/>
      <point x="455" y="547"/>
      <point x="411" y="536"/>
      <point x="333" y="532" type="curve" smooth="yes"/>
      <point x="226" y="526"/>
      <point x="68" y="516"/>
      <point x="68" y="296" type="curve" smooth="yes"/>
      <point x="68" y="180" type="line" smooth="yes"/>
      <point x="68" y="50"/>
      <point x="135" y="-10"/>
    </contour>
  </outline>
</glyph>
<glyph name="five-lao" format="2">
  <advance width="604"/>
  <unicode hex="0ED5"/>
  <note>
uni0ED5
</note>
  <outline>
    <contour>
      <point x="251" y="-10" type="curve" smooth="yes"/>
      <point x="310" y="-10"/>
      <point x="358" y="6"/>
      <point x="405" y="66" type="curve"/>
      <point x="407" y="66" type="line"/>
      <point x="419" y="36"/>
      <point x="442" y="5"/>
      <point x="460" y="-10" type="curve"/>
      <point x="524" y="38" type="line"/>
      <point x="496" y="63"/>
      <point x="469" y="95"/>
      <point x="469" y="164" type="curve" smooth="yes"/>
      <point x="469" y="260" type="line" smooth="yes"/>
      <point x="469" y="290"/>
      <point x="486" y="300"/>
      <point x="507" y="300" type="curve" smooth="yes"/>
      <point x="518" y="300"/>
      <point x="530" y="297"/>
      <point x="542" y="294" type="curve"/>
      <point x="556" y="356" type="line"/>
      <point x="531" y="365"/>
      <point x="506" y="370"/>
      <point x="483" y="370" type="curve" smooth="yes"/>
      <point x="430" y="370"/>
      <point x="381" y="344"/>
      <point x="381" y="268" type="curve" smooth="yes"/>
      <point x="381" y="172" type="line" smooth="yes"/>
      <point x="381" y="85"/>
      <point x="327" y="63"/>
      <point x="267" y="63" type="curve" smooth="yes"/>
      <point x="190" y="63"/>
      <point x="156" y="99"/>
      <point x="156" y="182" type="curve" smooth="yes"/>
      <point x="156" y="296" type="line" smooth="yes"/>
      <point x="156" y="450"/>
      <point x="232" y="454"/>
      <point x="344" y="460" type="curve" smooth="yes"/>
      <point x="420" y="464"/>
      <point x="534" y="478"/>
      <point x="534" y="660" type="curve" smooth="yes"/>
      <point x="534" y="682" type="line"/>
      <point x="455" y="682" type="line"/>
      <point x="455" y="660" type="line" smooth="yes"/>
      <point x="455" y="511"/>
      <point x="377" y="540"/>
      <point x="333" y="532" type="curve" smooth="yes"/>
      <point x="305" y="527"/>
      <point x="307" y="511"/>
      <point x="278" y="511" type="curve" smooth="yes"/>
      <point x="229" y="511" type="line" smooth="yes"/>
      <point x="153" y="511"/>
      <point x="68" y="450"/>
      <point x="68" y="296" type="curve" smooth="yes"/>
      <point x="68" y="180" type="line" smooth="yes"/>
      <point x="68" y="50"/>
      <point x="135" y="-10"/>
    </contour>
    <contour>
      <point x="275" y="468" type="curve" smooth="yes"/>
      <point x="342" y="468"/>
      <point x="385" y="512"/>
      <point x="385" y="572" type="curve" smooth="yes"/>
      <point x="385" y="632"/>
      <point x="342" y="676"/>
      <point x="275" y="676" type="curve" smooth="yes"/>
      <point x="213" y="676"/>
      <point x="168" y="638"/>
      <point x="168" y="572" type="curve" smooth="yes"/>
      <point x="168" y="506"/>
      <point x="213" y="468"/>
    </contour>
    <contour>
      <point x="276" y="527" type="curve" smooth="yes"/>
      <point x="247" y="527"/>
      <point x="228" y="545"/>
      <point x="228" y="571" type="curve" smooth="yes"/>
      <point x="228" y="599"/>
      <point x="249" y="616"/>
      <point x="276" y="616" type="curve" smooth="yes"/>
      <point x="303" y="616"/>
      <point x="323" y="598"/>
      <point x="323" y="571" type="curve" smooth="yes"/>
      <point x="323" y="545"/>
      <point x="304" y="527"/>
    </contour>
  </outline>
</glyph>
<glyph name="six-lao" format="2">
  <advance width="627"/>
  <unicode hex="0ED6"/>
  <note>
uni0ED6
</note>
  <outline>
    <contour>
      <point x="208" y="-10" type="curve" smooth="yes"/>
      <point x="267" y="-10"/>
      <point x="297" y="22"/>
      <point x="309" y="54" type="curve"/>
      <point x="313" y="54" type="line"/>
      <point x="326" y="22"/>
      <point x="356" y="-10"/>
      <point x="415" y="-10" type="curve" smooth="yes"/>
      <point x="497" y="-10"/>
      <point x="545" y="52"/>
      <point x="545" y="146" type="curve" smooth="yes"/>
      <point x="545" y="341" type="line" smooth="yes"/>
      <point x="545" y="429"/>
      <point x="480" y="484"/>
      <point x="412" y="524" type="curve" smooth="yes"/>
      <point x="344" y="564"/>
      <point x="275" y="586"/>
      <point x="275" y="611" type="curve" smooth="yes"/>
      <point x="275" y="620"/>
      <point x="284" y="627"/>
      <point x="298" y="627" type="curve" smooth="yes"/>
      <point x="308" y="627"/>
      <point x="325" y="623"/>
      <point x="338" y="618" type="curve" smooth="yes"/>
      <point x="531" y="542" type="line"/>
      <point x="531" y="611" type="line"/>
      <point x="352" y="680" type="line" smooth="yes"/>
      <point x="329" y="689"/>
      <point x="305" y="692"/>
      <point x="289" y="692" type="curve" smooth="yes"/>
      <point x="235" y="692"/>
      <point x="200" y="657"/>
      <point x="200" y="616" type="curve" smooth="yes"/>
      <point x="200" y="548"/>
      <point x="295" y="516"/>
      <point x="372" y="464" type="curve" smooth="yes"/>
      <point x="420" y="431"/>
      <point x="457" y="393"/>
      <point x="457" y="334" type="curve" smooth="yes"/>
      <point x="457" y="136" type="line" smooth="yes"/>
      <point x="457" y="82"/>
      <point x="436" y="63"/>
      <point x="403" y="63" type="curve" smooth="yes"/>
      <point x="370" y="63"/>
      <point x="349" y="83"/>
      <point x="349" y="126" type="curve" smooth="yes"/>
      <point x="349" y="308" type="line"/>
      <point x="273" y="308" type="line"/>
      <point x="273" y="126" type="line" smooth="yes"/>
      <point x="273" y="83"/>
      <point x="253" y="63"/>
      <point x="220" y="63" type="curve" smooth="yes"/>
      <point x="187" y="63"/>
      <point x="166" y="82"/>
      <point x="166" y="136" type="curve" smooth="yes"/>
      <point x="166" y="351" type="line" smooth="yes"/>
      <point x="166" y="382"/>
      <point x="183" y="392"/>
      <point x="204" y="392" type="curve" smooth="yes"/>
      <point x="215" y="392"/>
      <point x="228" y="389"/>
      <point x="240" y="385" type="curve"/>
      <point x="253" y="446" type="line"/>
      <point x="230" y="455"/>
      <point x="204" y="461"/>
      <point x="179" y="461" type="curve" smooth="yes"/>
      <point x="126" y="461"/>
      <point x="78" y="434"/>
      <point x="78" y="359" type="curve" smooth="yes"/>
      <point x="78" y="146" type="line" smooth="yes"/>
      <point x="78" y="51"/>
      <point x="126" y="-10"/>
    </contour>
  </outline>
</glyph>
<glyph name="seven-lao" format="2">
  <advance width="608"/>
  <unicode hex="0ED7"/>
  <note>
uni0ED7
</note>
  <outline>
    <contour>
      <point x="438" y="-165" type="line"/>
      <point x="526" y="-165" type="line"/>
      <point x="526" y="334" type="line" smooth="yes"/>
      <point x="526" y="461"/>
      <point x="459" y="526"/>
      <point x="340" y="526" type="curve" smooth="yes"/>
      <point x="275" y="526"/>
      <point x="216" y="507"/>
      <point x="171" y="450" type="curve"/>
      <point x="168" y="450" type="line"/>
      <point x="156" y="479"/>
      <point x="133" y="511"/>
      <point x="115" y="526" type="curve"/>
      <point x="51" y="477" type="line"/>
      <point x="79" y="451"/>
      <point x="106" y="411"/>
      <point x="106" y="343" type="curve" smooth="yes"/>
      <point x="106" y="98" type="line" smooth="yes"/>
      <point x="106" y="70"/>
      <point x="89" y="60"/>
      <point x="67" y="60" type="curve" smooth="yes"/>
      <point x="57" y="60"/>
      <point x="45" y="62"/>
      <point x="33" y="65" type="curve"/>
      <point x="20" y="4" type="line"/>
      <point x="44" y="-5"/>
      <point x="70" y="-10"/>
      <point x="92" y="-10" type="curve" smooth="yes"/>
      <point x="156" y="-10"/>
      <point x="194" y="31"/>
      <point x="194" y="101" type="curve" smooth="yes"/>
      <point x="194" y="337" type="line" smooth="yes"/>
      <point x="194" y="430"/>
      <point x="262" y="454"/>
      <point x="322" y="454" type="curve" smooth="yes"/>
      <point x="406" y="454"/>
      <point x="438" y="407"/>
      <point x="438" y="328" type="curve" smooth="yes"/>
    </contour>
  </outline>
</glyph>
<glyph name="eight-lao" format="2">
  <advance width="620"/>
  <unicode hex="0ED8"/>
  <note>
uni0ED8
</note>
  <outline>
    <contour>
      <point x="204" y="-179" type="curve" smooth="yes"/>
      <point x="249" y="-179"/>
      <point x="307" y="-151"/>
      <point x="356" y="-114" type="curve"/>
      <point x="364" y="-153"/>
      <point x="398" y="-180"/>
      <point x="438" y="-180" type="curve" smooth="yes"/>
      <point x="488" y="-180"/>
      <point x="523" y="-146"/>
      <point x="523" y="-98" type="curve" smooth="yes"/>
      <point x="523" y="-70"/>
      <point x="505" y="-41"/>
      <point x="480" y="-28" type="curve"/>
      <point x="512" y="3"/>
      <point x="538" y="42"/>
      <point x="538" y="91" type="curve" smooth="yes"/>
      <point x="538" y="367" type="line" smooth="yes"/>
      <point x="538" y="466"/>
      <point x="495" y="526"/>
      <point x="410" y="526" type="curve" smooth="yes"/>
      <point x="354" y="526"/>
      <point x="320" y="500"/>
      <point x="305" y="464" type="curve"/>
      <point x="301" y="464" type="line"/>
      <point x="284" y="505"/>
      <point x="255" y="526"/>
      <point x="203" y="526" type="curve" smooth="yes"/>
      <point x="112" y="526"/>
      <point x="49" y="460"/>
      <point x="49" y="291" type="curve" smooth="yes"/>
      <point x="49" y="83"/>
      <point x="144" y="61"/>
      <point x="197" y="61" type="curve" smooth="yes"/>
      <point x="222" y="61"/>
      <point x="248" y="66"/>
      <point x="271" y="75" type="curve"/>
      <point x="258" y="137" type="line"/>
      <point x="246" y="133"/>
      <point x="235" y="130"/>
      <point x="220" y="130" type="curve" smooth="yes"/>
      <point x="198" y="130"/>
      <point x="137" y="136"/>
      <point x="137" y="296" type="curve" smooth="yes"/>
      <point x="137" y="409"/>
      <point x="167" y="454"/>
      <point x="216" y="454" type="curve" smooth="yes"/>
      <point x="254" y="454"/>
      <point x="268" y="426"/>
      <point x="274" y="381" type="curve"/>
      <point x="331" y="381" type="line"/>
      <point x="336" y="421"/>
      <point x="355" y="454"/>
      <point x="393" y="454" type="curve" smooth="yes"/>
      <point x="433" y="454"/>
      <point x="450" y="417"/>
      <point x="450" y="360" type="curve" smooth="yes"/>
      <point x="450" y="98" type="line"/>
      <point x="254" y="10" type="line" smooth="yes"/>
      <point x="170" y="-28"/>
      <point x="124" y="-57"/>
      <point x="124" y="-108" type="curve" smooth="yes"/>
      <point x="124" y="-150"/>
      <point x="157" y="-179"/>
    </contour>
    <contour>
      <point x="210" y="-118" type="curve" smooth="yes"/>
      <point x="197" y="-118"/>
      <point x="190" y="-112"/>
      <point x="190" y="-103" type="curve" smooth="yes"/>
      <point x="190" y="-88"/>
      <point x="208" y="-73"/>
      <point x="247" y="-55" type="curve" smooth="yes"/>
      <point x="435" y="32" type="line"/>
      <point x="403" y="-32"/>
      <point x="260" y="-118"/>
    </contour>
    <contour>
      <point x="438" y="-133" type="curve" smooth="yes"/>
      <point x="417" y="-133"/>
      <point x="402" y="-119"/>
      <point x="402" y="-98" type="curve" smooth="yes"/>
      <point x="402" y="-78"/>
      <point x="417" y="-64"/>
      <point x="438" y="-64" type="curve" smooth="yes"/>
      <point x="460" y="-64"/>
      <point x="475" y="-78"/>
      <point x="475" y="-98" type="curve" smooth="yes"/>
      <point x="475" y="-119"/>
      <point x="460" y="-133"/>
    </contour>
  </outline>
</glyph>
<glyph name="nine-lao" format="2">
  <advance width="743"/>
  <unicode hex="0ED9"/>
  <note>
uni0ED9
</note>
  <outline>
    <contour>
      <point x="214" y="-10" type="curve" smooth="yes"/>
      <point x="239" y="-10"/>
      <point x="268" y="-5"/>
      <point x="286" y="3" type="curve"/>
      <point x="272" y="65" type="line"/>
      <point x="260" y="61"/>
      <point x="248" y="59"/>
      <point x="236" y="59" type="curve" smooth="yes"/>
      <point x="170" y="59"/>
      <point x="152" y="116"/>
      <point x="152" y="240" type="curve" smooth="yes"/>
      <point x="152" y="386"/>
      <point x="177" y="454"/>
      <point x="259" y="454" type="curve" smooth="yes"/>
      <point x="316" y="454"/>
      <point x="338" y="420"/>
      <point x="338" y="351" type="curve" smooth="yes"/>
      <point x="338" y="161" type="line" smooth="yes"/>
      <point x="338" y="56"/>
      <point x="391" y="-10"/>
      <point x="500" y="-10" type="curve" smooth="yes"/>
      <point x="609" y="-10"/>
      <point x="661" y="56"/>
      <point x="661" y="161" type="curve" smooth="yes"/>
      <point x="661" y="516" type="line"/>
      <point x="575" y="516" type="line"/>
      <point x="575" y="156" type="line" smooth="yes"/>
      <point x="575" y="98"/>
      <point x="555" y="62"/>
      <point x="498" y="62" type="curve" smooth="yes"/>
      <point x="442" y="62"/>
      <point x="424" y="98"/>
      <point x="424" y="156" type="curve" smooth="yes"/>
      <point x="424" y="355" type="line" smooth="yes"/>
      <point x="424" y="456"/>
      <point x="369" y="526"/>
      <point x="256" y="526" type="curve" smooth="yes"/>
      <point x="121" y="526"/>
      <point x="64" y="427"/>
      <point x="64" y="242" type="curve" smooth="yes"/>
      <point x="64" y="67"/>
      <point x="115" y="-10"/>
    </contour>
  </outline>
</glyph>
<glyph name="hoNo-lao" format="2">
  <advance width="961"/>
  <unicode hex="0EDC"/>
  <note>
uni0EDC
</note>
  <anchor x="869" y="0" name="bottom"/>
  <anchor x="879" y="504" name="top"/>
  <anchor x="700" y="504" name="top2"/>
  <outline>
    <contour>
      <point x="240" y="-10" type="curve" smooth="yes"/>
      <point x="346" y="-10"/>
      <point x="402" y="45"/>
      <point x="402" y="149" type="curve" smooth="yes"/>
      <point x="402" y="371" type="line" smooth="yes"/>
      <point x="402" y="421"/>
      <point x="428" y="453"/>
      <point x="481" y="453" type="curve" smooth="yes"/>
      <point x="528" y="453"/>
      <point x="555" y="427"/>
      <point x="555" y="377" type="curve" smooth="yes"/>
      <point x="555" y="173" type="line" smooth="yes"/>
      <point x="555" y="117"/>
      <point x="535" y="71"/>
      <point x="499" y="38" type="curve"/>
      <point x="563" y="-10" type="line"/>
      <point x="582" y="6"/>
      <point x="598" y="30"/>
      <point x="609" y="62" type="curve"/>
      <point x="612" y="62" type="line"/>
      <point x="639" y="14"/>
      <point x="684" y="-10"/>
      <point x="744" y="-10" type="curve" smooth="yes"/>
      <point x="832" y="-10"/>
      <point x="879" y="43"/>
      <point x="879" y="147" type="curve" smooth="yes"/>
      <point x="879" y="516" type="line"/>
      <point x="791" y="516" type="line"/>
      <point x="791" y="152" type="line" smooth="yes"/>
      <point x="791" y="91"/>
      <point x="767" y="62"/>
      <point x="719" y="62" type="curve" smooth="yes"/>
      <point x="671" y="62"/>
      <point x="641" y="90"/>
      <point x="641" y="143" type="curve" smooth="yes"/>
      <point x="641" y="392" type="line" smooth="yes"/>
      <point x="641" y="479"/>
      <point x="596" y="526"/>
      <point x="517" y="526" type="curve" smooth="yes"/>
      <point x="461" y="526"/>
      <point x="421" y="503"/>
      <point x="391" y="472" type="curve"/>
      <point x="387" y="472" type="line"/>
      <point x="373" y="498"/>
      <point x="354" y="516"/>
      <point x="333" y="526" type="curve"/>
      <point x="271" y="482" type="line"/>
      <point x="301" y="461"/>
      <point x="316" y="433"/>
      <point x="316" y="399" type="curve" smooth="yes"/>
      <point x="316" y="143" type="line" smooth="yes"/>
      <point x="316" y="90"/>
      <point x="290" y="62"/>
      <point x="241" y="62" type="curve" smooth="yes"/>
      <point x="192" y="62"/>
      <point x="166" y="90"/>
      <point x="166" y="143" type="curve" smooth="yes"/>
      <point x="166" y="516" type="line"/>
      <point x="78" y="516" type="line"/>
      <point x="78" y="149" type="line" smooth="yes"/>
      <point x="78" y="45"/>
      <point x="134" y="-10"/>
    </contour>
  </outline>
</glyph>
<glyph name="hoMo-lao" format="2">
  <advance width="982"/>
  <unicode hex="0EDD"/>
  <note>
uni0EDD
</note>
  <anchor x="890" y="0" name="bottom"/>
  <anchor x="899" y="504" name="top"/>
  <anchor x="730" y="504" name="top2"/>
  <outline>
    <contour>
      <point x="240" y="-10" type="curve" smooth="yes"/>
      <point x="346" y="-10"/>
      <point x="402" y="45"/>
      <point x="402" y="149" type="curve" smooth="yes"/>
      <point x="402" y="371" type="line" smooth="yes"/>
      <point x="402" y="419"/>
      <point x="434" y="454"/>
      <point x="491" y="454" type="curve" smooth="yes"/>
      <point x="542" y="454"/>
      <point x="576" y="425"/>
      <point x="576" y="377" type="curve" smooth="yes"/>
      <point x="576" y="84" type="line" smooth="yes"/>
      <point x="576" y="67"/>
      <point x="567" y="58"/>
      <point x="552" y="58" type="curve" smooth="yes"/>
      <point x="536" y="58"/>
      <point x="524" y="69"/>
      <point x="517" y="88" type="curve"/>
      <point x="453" y="73" type="line"/>
      <point x="462" y="19"/>
      <point x="494" y="-10"/>
      <point x="554" y="-10" type="curve" smooth="yes"/>
      <point x="607" y="-10"/>
      <point x="645" y="13"/>
      <point x="645" y="58" type="curve" smooth="yes"/>
      <point x="645" y="75" type="line"/>
      <point x="621" y="49" type="line"/>
      <point x="648" y="49" type="line"/>
      <point x="670" y="11"/>
      <point x="708" y="-10"/>
      <point x="763" y="-10" type="curve" smooth="yes"/>
      <point x="853" y="-10"/>
      <point x="900" y="46"/>
      <point x="900" y="151" type="curve" smooth="yes"/>
      <point x="900" y="516" type="line"/>
      <point x="812" y="516" type="line"/>
      <point x="812" y="144" type="line" smooth="yes"/>
      <point x="812" y="90"/>
      <point x="789" y="62"/>
      <point x="741" y="62" type="curve" smooth="yes"/>
      <point x="691" y="62"/>
      <point x="662" y="93"/>
      <point x="662" y="151" type="curve" smooth="yes"/>
      <point x="662" y="393" type="line" smooth="yes"/>
      <point x="662" y="480"/>
      <point x="609" y="526"/>
      <point x="522" y="526" type="curve" smooth="yes"/>
      <point x="459" y="526"/>
      <point x="420" y="502"/>
      <point x="391" y="472" type="curve"/>
      <point x="387" y="472" type="line"/>
      <point x="373" y="497"/>
      <point x="353" y="517"/>
      <point x="333" y="526" type="curve"/>
      <point x="271" y="482" type="line"/>
      <point x="301" y="461"/>
      <point x="316" y="433"/>
      <point x="316" y="399" type="curve" smooth="yes"/>
      <point x="316" y="143" type="line" smooth="yes"/>
      <point x="316" y="90"/>
      <point x="290" y="62"/>
      <point x="241" y="62" type="curve" smooth="yes"/>
      <point x="192" y="62"/>
      <point x="166" y="90"/>
      <point x="166" y="143" type="curve" smooth="yes"/>
      <point x="166" y="516" type="line"/>
      <point x="78" y="516" type="line"/>
      <point x="78" y="149" type="line" smooth="yes"/>
      <point x="78" y="45"/>
      <point x="134" y="-10"/>
    </contour>
  </outline>
</glyph>
<glyph name="khmuGo-lao" format="2">
  <advance width="611"/>
  <unicode hex="0EDE"/>
  <anchor x="527" y="0" name="bottom"/>
  <anchor x="517" y="504" name="top"/>
  <anchor x="335" y="504" name="top2"/>
  <outline>
    <contour>
      <point x="92" y="-10" type="curve" smooth="yes"/>
      <point x="156" y="-10"/>
      <point x="194" y="31"/>
      <point x="194" y="101" type="curve" smooth="yes"/>
      <point x="194" y="337" type="line" smooth="yes"/>
      <point x="194" y="430"/>
      <point x="262" y="454"/>
      <point x="322" y="454" type="curve" smooth="yes"/>
      <point x="406" y="454"/>
      <point x="438" y="407"/>
      <point x="438" y="328" type="curve" smooth="yes"/>
      <point x="438" y="0" type="line"/>
      <point x="526" y="0" type="line"/>
      <point x="526" y="334" type="line" smooth="yes"/>
      <point x="526" y="461"/>
      <point x="459" y="526"/>
      <point x="340" y="526" type="curve" smooth="yes"/>
      <point x="275" y="526"/>
      <point x="216" y="507"/>
      <point x="171" y="450" type="curve"/>
      <point x="168" y="450" type="line"/>
      <point x="156" y="479"/>
      <point x="133" y="511"/>
      <point x="115" y="526" type="curve"/>
      <point x="51" y="477" type="line"/>
      <point x="79" y="451"/>
      <point x="106" y="411"/>
      <point x="106" y="343" type="curve" smooth="yes"/>
      <point x="106" y="98" type="line" smooth="yes"/>
      <point x="106" y="70"/>
      <point x="89" y="60"/>
      <point x="67" y="60" type="curve" smooth="yes"/>
      <point x="57" y="60"/>
      <point x="45" y="62"/>
      <point x="33" y="65" type="curve"/>
      <point x="20" y="4" type="line"/>
      <point x="44" y="-5"/>
      <point x="70" y="-10"/>
    </contour>
    <contour>
      <point x="368" y="195" type="curve" smooth="yes"/>
      <point x="581" y="195" type="line"/>
      <point x="581" y="261" type="line"/>
      <point x="374" y="261" type="line" smooth="yes"/>
      <point x="349" y="261"/>
      <point x="339" y="274"/>
      <point x="339" y="292" type="curve" smooth="yes"/>
      <point x="339" y="301"/>
      <point x="341" y="315"/>
      <point x="344" y="321" type="curve"/>
      <point x="277" y="332" type="line"/>
      <point x="268" y="318"/>
      <point x="262" y="294"/>
      <point x="262" y="275" type="curve" smooth="yes"/>
      <point x="262" y="233"/>
      <point x="293" y="195"/>
    </contour>
  </outline>
</glyph>
<glyph name="khmuNyo-lao" format="2">
  <advance width="612"/>
  <unicode hex="0EDF"/>
  <anchor x="517" y="0" name="bottom"/>
  <anchor x="527" y="504" name="top"/>
  <anchor x="344" y="504" name="top2"/>
  <outline>
    <contour>
      <point x="300" y="-10" type="curve" smooth="yes"/>
      <point x="448" y="-10"/>
      <point x="527" y="47"/>
      <point x="527" y="179" type="curve" smooth="yes"/>
      <point x="527" y="516" type="line"/>
      <point x="439" y="516" type="line"/>
      <point x="439" y="169" type="line" smooth="yes"/>
      <point x="439" y="94"/>
      <point x="397" y="62"/>
      <point x="300" y="62" type="curve" smooth="yes"/>
      <point x="198" y="62"/>
      <point x="156" y="98"/>
      <point x="156" y="159" type="curve" smooth="yes"/>
      <point x="156" y="218"/>
      <point x="195" y="246"/>
      <point x="243" y="246" type="curve" smooth="yes"/>
      <point x="263" y="246" type="line"/>
      <point x="263" y="309" type="line"/>
      <point x="243" y="309" type="line" smooth="yes"/>
      <point x="215" y="309"/>
      <point x="156" y="325"/>
      <point x="156" y="386" type="curve" smooth="yes"/>
      <point x="156" y="428"/>
      <point x="184" y="454"/>
      <point x="239" y="454" type="curve" smooth="yes"/>
      <point x="264" y="454"/>
      <point x="289" y="449"/>
      <point x="303" y="444" type="curve"/>
      <point x="318" y="511" type="line"/>
      <point x="299" y="520"/>
      <point x="262" y="526"/>
      <point x="227" y="526" type="curve" smooth="yes"/>
      <point x="112" y="526"/>
      <point x="68" y="461"/>
      <point x="68" y="395" type="curve" smooth="yes"/>
      <point x="68" y="324"/>
      <point x="120" y="290"/>
      <point x="161" y="278" type="curve"/>
      <point x="161" y="274" type="line"/>
      <point x="115" y="267"/>
      <point x="68" y="232"/>
      <point x="68" y="153" type="curve" smooth="yes"/>
      <point x="68" y="51"/>
      <point x="146" y="-10"/>
    </contour>
    <contour>
      <point x="403" y="224" type="curve" smooth="yes"/>
      <point x="602" y="224" type="line"/>
      <point x="602" y="290" type="line"/>
      <point x="409" y="290" type="line" smooth="yes"/>
      <point x="384" y="290"/>
      <point x="374" y="303"/>
      <point x="374" y="321" type="curve" smooth="yes"/>
      <point x="374" y="330"/>
      <point x="376" y="344"/>
      <point x="379" y="350" type="curve"/>
      <point x="312" y="361" type="line"/>
      <point x="303" y="347"/>
      <point x="297" y="323"/>
      <point x="297" y="304" type="curve" smooth="yes"/>
      <point x="297" y="262"/>
      <point x="328" y="224"/>
    </contour>
  </outline>
</glyph>
<glyph name="kip" format="2">
  <advance width="583"/>
  <unicode hex="20AD"/>
  <note>
uni20AD
</note>
  <outline>
    <contour>
      <point x="97" y="0" type="line"/>
      <point x="188" y="0" type="line"/>
      <point x="188" y="334" type="line"/>
      <point x="245" y="334" type="line"/>
      <point x="472" y="0" type="line"/>
      <point x="579" y="0" type="line"/>
      <point x="310" y="381" type="line"/>
      <point x="568" y="714" type="line"/>
      <point x="464" y="714" type="line"/>
      <point x="231" y="400" type="line"/>
      <point x="188" y="400" type="line"/>
      <point x="188" y="714" type="line"/>
      <point x="97" y="714" type="line"/>
    </contour>
    <contour>
      <point x="10" y="334" type="line"/>
      <point x="520" y="334" type="line"/>
      <point x="520" y="400" type="line"/>
      <point x="10" y="400" type="line"/>
    </contour>
  </outline>
</glyph>
<glyph name="euVowel-lao.narrow" format="2">
  <note>
sarauelaonorm
</note>
  <anchor x="-204" y="504" name="_top"/>
  <anchor x="-247" y="810" name="top"/>
  <outline>
    <contour>
      <point x="-457" y="598" type="curve"/>
      <point x="-444" y="645" type="line"/>
      <point x="-485" y="650"/>
      <point x="-516" y="671"/>
      <point x="-516" y="701" type="curve" smooth="yes"/>
      <point x="-516" y="737"/>
      <point x="-469" y="762"/>
      <point x="-400" y="762" type="curve" smooth="yes"/>
      <point x="-331" y="762"/>
      <point x="-285" y="737"/>
      <point x="-285" y="700" type="curve" smooth="yes"/>
      <point x="-285" y="671"/>
      <point x="-313" y="649"/>
      <point x="-354" y="645" type="curve"/>
      <point x="-343" y="598" type="line"/>
      <point x="-262" y="598"/>
      <point x="-206" y="638"/>
      <point x="-206" y="700" type="curve" smooth="yes"/>
      <point x="-206" y="772"/>
      <point x="-283" y="822"/>
      <point x="-400" y="822" type="curve" smooth="yes"/>
      <point x="-517" y="822"/>
      <point x="-594" y="772"/>
      <point x="-594" y="700" type="curve" smooth="yes"/>
      <point x="-594" y="638"/>
      <point x="-538" y="598"/>
    </contour>
    <contour>
      <point x="-400" y="655" type="curve" smooth="yes"/>
      <point x="-377" y="655"/>
      <point x="-359" y="674"/>
      <point x="-359" y="696" type="curve" smooth="yes"/>
      <point x="-359" y="718"/>
      <point x="-377" y="737"/>
      <point x="-400" y="737" type="curve" smooth="yes"/>
      <point x="-423" y="737"/>
      <point x="-441" y="718"/>
      <point x="-441" y="696" type="curve" smooth="yes"/>
      <point x="-441" y="674"/>
      <point x="-423" y="655"/>
    </contour>
  </outline>
</glyph>
<glyph name="iVowel-lao.narrow" format="2">
  <note>
sarailaonorm
</note>
  <anchor x="-204" y="504" name="_top"/>
  <anchor x="-247" y="810" name="top"/>
  <outline>
    <contour>
      <point x="-457" y="598" type="curve"/>
      <point x="-444" y="645" type="line"/>
      <point x="-485" y="650"/>
      <point x="-516" y="671"/>
      <point x="-516" y="701" type="curve" smooth="yes"/>
      <point x="-516" y="737"/>
      <point x="-469" y="762"/>
      <point x="-400" y="762" type="curve" smooth="yes"/>
      <point x="-331" y="762"/>
      <point x="-285" y="737"/>
      <point x="-285" y="700" type="curve" smooth="yes"/>
      <point x="-285" y="671"/>
      <point x="-313" y="649"/>
      <point x="-354" y="645" type="curve"/>
      <point x="-343" y="598" type="line"/>
      <point x="-262" y="598"/>
      <point x="-206" y="638"/>
      <point x="-206" y="700" type="curve" smooth="yes"/>
      <point x="-206" y="772"/>
      <point x="-283" y="822"/>
      <point x="-400" y="822" type="curve" smooth="yes"/>
      <point x="-517" y="822"/>
      <point x="-594" y="772"/>
      <point x="-594" y="700" type="curve" smooth="yes"/>
      <point x="-594" y="638"/>
      <point x="-538" y="598"/>
    </contour>
  </outline>
</glyph>
<glyph name="iiVowel-lao.narrow" format="2">
  <note>
saraiilaonorm
</note>
  <anchor x="-204" y="504" name="_top"/>
  <anchor x="-247" y="810" name="top"/>
  <outline>
    <contour>
      <point x="-477" y="598" type="curve"/>
      <point x="-464" y="645" type="line"/>
      <point x="-507" y="650"/>
      <point x="-536" y="673"/>
      <point x="-536" y="701" type="curve" smooth="yes"/>
      <point x="-536" y="737"/>
      <point x="-488" y="762"/>
      <point x="-420" y="762" type="curve" smooth="yes"/>
      <point x="-351" y="762"/>
      <point x="-305" y="737"/>
      <point x="-305" y="700" type="curve" smooth="yes"/>
      <point x="-305" y="673"/>
      <point x="-331" y="655"/>
      <point x="-372" y="648" type="curve"/>
      <point x="-359" y="598" type="line"/>
      <point x="-179" y="598" type="line"/>
      <point x="-179" y="658" type="line"/>
      <point x="-212" y="658" type="line" smooth="yes"/>
      <point x="-231" y="658"/>
      <point x="-250" y="656"/>
      <point x="-259" y="653" type="curve"/>
      <point x="-259" y="655" type="line"/>
      <point x="-235" y="667"/>
      <point x="-225" y="688"/>
      <point x="-225" y="711" type="curve" smooth="yes"/>
      <point x="-225" y="774"/>
      <point x="-302" y="822"/>
      <point x="-419" y="822" type="curve" smooth="yes"/>
      <point x="-538" y="822"/>
      <point x="-614" y="772"/>
      <point x="-614" y="700" type="curve" smooth="yes"/>
      <point x="-614" y="638"/>
      <point x="-558" y="598"/>
    </contour>
  </outline>
</glyph>
<glyph name="karan-lao.small" format="2">
  <anchor x="-82" y="810" name="_top"/>
  <anchor x="-82" y="1031" name="top"/>
  <outline>
    <contour>
      <point x="-237" y="873" type="curve"/>
      <point x="-162" y="885" type="line"/>
      <point x="-167" y="895"/>
      <point x="-171" y="906"/>
      <point x="-171" y="916" type="curve" smooth="yes"/>
      <point x="-171" y="938"/>
      <point x="-154" y="947"/>
      <point x="-129" y="947" type="curve" smooth="yes"/>
      <point x="-17" y="947" type="line"/>
      <point x="-17" y="1015" type="line"/>
      <point x="-152" y="1015" type="line" smooth="yes"/>
      <point x="-232" y="1015"/>
      <point x="-254" y="976"/>
      <point x="-254" y="935" type="curve" smooth="yes"/>
      <point x="-254" y="913"/>
      <point x="-247" y="887"/>
    </contour>
  </outline>
</glyph>
<glyph name="loVowel-lao.narrow" format="2">
  <anchor x="-204" y="0" name="_bottom"/>
  <anchor x="-214" y="-151" name="bottom"/>
  <outline>
    <contour>
      <point x="-502" y="-178" type="curve"/>
      <point x="-427" y="-178" type="line"/>
      <point x="-433" y="-169"/>
      <point x="-437" y="-155"/>
      <point x="-437" y="-146" type="curve" smooth="yes"/>
      <point x="-437" y="-133"/>
      <point x="-430" y="-127"/>
      <point x="-408" y="-127" type="curve" smooth="yes"/>
      <point x="-362" y="-127"/>
      <point x="-324" y="-155"/>
      <point x="-273" y="-155" type="curve" smooth="yes"/>
      <point x="-253" y="-155"/>
      <point x="-230" y="-151"/>
      <point x="-204" y="-137" type="curve"/>
      <point x="-204" y="-74" type="line"/>
      <point x="-229" y="-87"/>
      <point x="-251" y="-92"/>
      <point x="-271" y="-92" type="curve" smooth="yes"/>
      <point x="-320" y="-92"/>
      <point x="-358" y="-63"/>
      <point x="-423" y="-63" type="curve" smooth="yes"/>
      <point x="-494" y="-63"/>
      <point x="-517" y="-97"/>
      <point x="-517" y="-132" type="curve" smooth="yes"/>
      <point x="-517" y="-149"/>
      <point x="-511" y="-166"/>
    </contour>
  </outline>
</glyph>
<glyph name="maiCatawa-lao.narrow" format="2">
  <note>
maichattawalaolow
</note>
  <anchor x="-204" y="504" name="_top"/>
  <anchor x="-204" y="802" name="top"/>
  <outline>
    <contour>
      <point x="-391" y="608" type="line"/>
      <point x="-307" y="608" type="line"/>
      <point x="-307" y="675" type="line"/>
      <point x="-223" y="675" type="line"/>
      <point x="-223" y="735" type="line"/>
      <point x="-307" y="735" type="line"/>
      <point x="-307" y="802" type="line"/>
      <point x="-391" y="802" type="line"/>
      <point x="-391" y="735" type="line"/>
      <point x="-475" y="735" type="line"/>
      <point x="-475" y="675" type="line"/>
      <point x="-391" y="675" type="line"/>
    </contour>
  </outline>
</glyph>
<glyph name="maiCatawa-lao.small" format="2">
  <anchor x="-82" y="810" name="_top"/>
  <anchor x="-82" y="1088" name="top"/>
  <outline>
    <contour>
      <point x="-160" y="882" type="line"/>
      <point x="-87" y="882" type="line"/>
      <point x="-87" y="937" type="line"/>
      <point x="-21" y="937" type="line"/>
      <point x="-21" y="996" type="line"/>
      <point x="-87" y="996" type="line"/>
      <point x="-87" y="1051" type="line"/>
      <point x="-160" y="1051" type="line"/>
      <point x="-160" y="996" type="line"/>
      <point x="-226" y="996" type="line"/>
      <point x="-226" y="937" type="line"/>
      <point x="-160" y="937" type="line"/>
    </contour>
  </outline>
</glyph>
<glyph name="maiEk-lao.small" format="2">
  <anchor x="-82" y="810" name="_top"/>
  <anchor x="-82" y="1034" name="top"/>
  <outline>
    <contour>
      <point x="-157" y="882" type="line"/>
      <point x="-86" y="882" type="line"/>
      <point x="-86" y="1034" type="line"/>
      <point x="-157" y="1034" type="line"/>
    </contour>
  </outline>
</glyph>
<glyph name="maiKanVowel-lao.narrow" format="2">
  <note>
maihanakadlaonorm
</note>
  <anchor x="-204" y="504" name="_top"/>
  <anchor x="-298" y="741" name="top"/>
  <outline>
    <contour>
      <point x="-453" y="608" type="curve" smooth="yes"/>
      <point x="-214" y="608" type="line"/>
      <point x="-214" y="676" type="line"/>
      <point x="-429" y="676" type="line" smooth="yes"/>
      <point x="-461" y="676"/>
      <point x="-475" y="692"/>
      <point x="-475" y="713" type="curve" smooth="yes"/>
      <point x="-475" y="724"/>
      <point x="-471" y="737"/>
      <point x="-465" y="749" type="curve"/>
      <point x="-540" y="749" type="line"/>
      <point x="-550" y="734"/>
      <point x="-556" y="711"/>
      <point x="-556" y="687" type="curve" smooth="yes"/>
      <point x="-556" y="634"/>
      <point x="-524" y="608"/>
    </contour>
  </outline>
</glyph>
<glyph name="maiKonVowel-lao.narrow" format="2">
  <note>
karanlaoor
</note>
  <anchor x="-204" y="504" name="_top"/>
  <anchor x="-296" y="764" name="top"/>
  <outline>
    <contour>
      <point x="-540" y="608" type="curve"/>
      <point x="-465" y="608" type="line"/>
      <point x="-470" y="618"/>
      <point x="-473" y="636"/>
      <point x="-473" y="646" type="curve" smooth="yes"/>
      <point x="-473" y="669"/>
      <point x="-457" y="678"/>
      <point x="-430" y="678" type="curve" smooth="yes"/>
      <point x="-214" y="678" type="line"/>
      <point x="-214" y="745" type="line"/>
      <point x="-453" y="745" type="line" smooth="yes"/>
      <point x="-533" y="745"/>
      <point x="-556" y="707"/>
      <point x="-556" y="666" type="curve" smooth="yes"/>
      <point x="-556" y="644"/>
      <point x="-549" y="622"/>
    </contour>
  </outline>
</glyph>
<glyph name="maiTho-lao.narrow" format="2">
  <note>
maitolaolow
</note>
  <anchor x="-204" y="504" name="_top"/>
  <anchor x="-306" y="810" name="top"/>
  <outline>
    <contour>
      <point x="-487" y="608" type="line"/>
      <point x="-221" y="608" type="line"/>
      <point x="-221" y="674" type="line"/>
      <point x="-356" y="674" type="line"/>
      <point x="-341" y="686"/>
      <point x="-331" y="707"/>
      <point x="-331" y="732" type="curve" smooth="yes"/>
      <point x="-331" y="777"/>
      <point x="-362" y="804"/>
      <point x="-419" y="804" type="curve" smooth="yes"/>
      <point x="-448" y="804"/>
      <point x="-478" y="797"/>
      <point x="-496" y="785" type="curve"/>
      <point x="-478" y="740" type="line"/>
      <point x="-469" y="745"/>
      <point x="-456" y="749"/>
      <point x="-443" y="749" type="curve" smooth="yes"/>
      <point x="-419" y="749"/>
      <point x="-405" y="736"/>
      <point x="-405" y="713" type="curve" smooth="yes"/>
      <point x="-405" y="679"/>
      <point x="-436" y="655"/>
      <point x="-487" y="648" type="curve"/>
    </contour>
  </outline>
</glyph>
<glyph name="maiTho-lao.small" format="2">
  <anchor x="-82" y="810" name="_top"/>
  <anchor x="-85" y="1056" name="top"/>
  <outline>
    <contour>
      <point x="-272" y="882" type="line"/>
      <point x="28" y="882" type="line"/>
      <point x="28" y="944" type="line"/>
      <point x="-145" y="944" type="line"/>
      <point x="-131" y="954"/>
      <point x="-121" y="967"/>
      <point x="-121" y="989" type="curve" smooth="yes"/>
      <point x="-121" y="1027"/>
      <point x="-152" y="1046"/>
      <point x="-202" y="1046" type="curve" smooth="yes"/>
      <point x="-234" y="1046"/>
      <point x="-263" y="1038"/>
      <point x="-281" y="1027" type="curve"/>
      <point x="-263" y="981" type="line"/>
      <point x="-254" y="987"/>
      <point x="-240" y="991"/>
      <point x="-227" y="991" type="curve" smooth="yes"/>
      <point x="-209" y="991"/>
      <point x="-194" y="983"/>
      <point x="-194" y="966" type="curve" smooth="yes"/>
      <point x="-194" y="939"/>
      <point x="-229" y="929"/>
      <point x="-272" y="923" type="curve"/>
    </contour>
  </outline>
</glyph>
<glyph name="maiTi-lao.narrow" format="2">
  <note>
maithrilaolow
</note>
  <anchor x="-204" y="504" name="_top"/>
  <anchor x="-204" y="787" name="top"/>
  <outline>
    <contour>
      <point x="-445" y="605" type="curve" smooth="yes"/>
      <point x="-429" y="605"/>
      <point x="-414" y="608"/>
      <point x="-407" y="613" type="curve"/>
      <point x="-413" y="654" type="line"/>
      <point x="-418" y="652"/>
      <point x="-424" y="651"/>
      <point x="-429" y="651" type="curve" smooth="yes"/>
      <point x="-451" y="651"/>
      <point x="-463" y="668"/>
      <point x="-463" y="692" type="curve" smooth="yes"/>
      <point x="-463" y="718"/>
      <point x="-450" y="728"/>
      <point x="-432" y="730" type="curve"/>
      <point x="-390" y="704" type="line"/>
      <point x="-377" y="704" type="line"/>
      <point x="-336" y="730" type="line"/>
      <point x="-318" y="727"/>
      <point x="-306" y="714"/>
      <point x="-306" y="691" type="curve" smooth="yes"/>
      <point x="-306" y="668"/>
      <point x="-319" y="649"/>
      <point x="-341" y="646" type="curve"/>
      <point x="-341" y="608" type="line"/>
      <point x="-152" y="608" type="line"/>
      <point x="-152" y="667" type="line"/>
      <point x="-250" y="667" type="line"/>
      <point x="-240" y="681"/>
      <point x="-235" y="698"/>
      <point x="-235" y="715" type="curve" smooth="yes"/>
      <point x="-235" y="759"/>
      <point x="-271" y="785"/>
      <point x="-335" y="785" type="curve"/>
      <point x="-383" y="750" type="line"/>
      <point x="-437" y="785" type="line"/>
      <point x="-497" y="785"/>
      <point x="-532" y="751"/>
      <point x="-532" y="694" type="curve" smooth="yes"/>
      <point x="-532" y="638"/>
      <point x="-499" y="605"/>
    </contour>
  </outline>
</glyph>
<glyph name="maiTi-lao.small" format="2">
  <anchor x="-82" y="810" name="_top"/>
  <anchor x="-85" y="1088" name="top"/>
  <outline>
    <contour>
      <point x="-245" y="878" type="curve" smooth="yes"/>
      <point x="-229" y="878"/>
      <point x="-214" y="882"/>
      <point x="-205" y="887" type="curve"/>
      <point x="-213" y="930" type="line"/>
      <point x="-218" y="928"/>
      <point x="-226" y="927"/>
      <point x="-232" y="927" type="curve" smooth="yes"/>
      <point x="-255" y="927"/>
      <point x="-264" y="942"/>
      <point x="-264" y="960" type="curve" smooth="yes"/>
      <point x="-264" y="979"/>
      <point x="-254" y="993"/>
      <point x="-232" y="995" type="curve"/>
      <point x="-184" y="968" type="line"/>
      <point x="-179" y="968" type="line"/>
      <point x="-132" y="995" type="line"/>
      <point x="-112" y="992"/>
      <point x="-101" y="978"/>
      <point x="-101" y="960" type="curve" smooth="yes"/>
      <point x="-101" y="939"/>
      <point x="-116" y="923"/>
      <point x="-137" y="921" type="curve"/>
      <point x="-137" y="882" type="line"/>
      <point x="20" y="882" type="line"/>
      <point x="20" y="937" type="line"/>
      <point x="-53" y="937" type="line"/>
      <point x="-46" y="946"/>
      <point x="-41" y="963"/>
      <point x="-41" y="978" type="curve" smooth="yes"/>
      <point x="-41" y="1024"/>
      <point x="-86" y="1046"/>
      <point x="-130" y="1046" type="curve"/>
      <point x="-181" y="1013" type="line"/>
      <point x="-236" y="1046" type="line"/>
      <point x="-294" y="1046"/>
      <point x="-325" y="1007"/>
      <point x="-325" y="960" type="curve" smooth="yes"/>
      <point x="-325" y="916"/>
      <point x="-297" y="878"/>
    </contour>
  </outline>
</glyph>
<glyph name="niggahita-lao.right" format="2">
  <anchor x="-82" y="504" name="_top"/>
  <anchor x="-82" y="788" name="top"/>
  <outline>
    <contour>
      <point x="-138" y="595" type="curve" smooth="yes"/>
      <point x="-75" y="595"/>
      <point x="-33" y="634"/>
      <point x="-33" y="692" type="curve" smooth="yes"/>
      <point x="-33" y="750"/>
      <point x="-75" y="788"/>
      <point x="-138" y="788" type="curve" smooth="yes"/>
      <point x="-200" y="788"/>
      <point x="-241" y="750"/>
      <point x="-241" y="692" type="curve" smooth="yes"/>
      <point x="-241" y="634"/>
      <point x="-200" y="595"/>
    </contour>
    <contour>
      <point x="-138" y="648" type="curve" smooth="yes"/>
      <point x="-165" y="648"/>
      <point x="-183" y="665"/>
      <point x="-183" y="692" type="curve" smooth="yes"/>
      <point x="-183" y="719"/>
      <point x="-165" y="736"/>
      <point x="-137" y="736" type="curve" smooth="yes"/>
      <point x="-110" y="736"/>
      <point x="-92" y="719"/>
      <point x="-92" y="693" type="curve" smooth="yes"/>
      <point x="-92" y="666"/>
      <point x="-110" y="648"/>
    </contour>
  </outline>
</glyph>
<glyph name="uVowel-lao.narrow" format="2">
  <anchor x="-204" y="0" name="_bottom"/>
  <outline>
    <contour>
      <point x="-277" y="-244" type="line"/>
      <point x="-204" y="-244" type="line"/>
      <point x="-204" y="-147" type="line" smooth="yes"/>
      <point x="-204" y="-87"/>
      <point x="-234" y="-68"/>
      <point x="-275" y="-68" type="curve" smooth="yes"/>
      <point x="-298" y="-68"/>
      <point x="-327" y="-74"/>
      <point x="-342" y="-81" type="curve"/>
      <point x="-329" y="-134" type="line"/>
      <point x="-321" y="-132"/>
      <point x="-311" y="-129"/>
      <point x="-301" y="-129" type="curve" smooth="yes"/>
      <point x="-286" y="-129"/>
      <point x="-277" y="-136"/>
      <point x="-277" y="-155" type="curve" smooth="yes"/>
    </contour>
  </outline>
</glyph>
<glyph name="uVowel-lao.small" format="2">
  <note>
saraulao4j
</note>
  <anchor x="-82" y="-103" name="_bottom"/>
  <outline>
    <contour>
      <point x="-150" y="-271" type="line"/>
      <point x="-82" y="-271" type="line"/>
      <point x="-82" y="-195" type="line" smooth="yes"/>
      <point x="-82" y="-140"/>
      <point x="-105" y="-116"/>
      <point x="-145" y="-116" type="curve" smooth="yes"/>
      <point x="-163" y="-116"/>
      <point x="-186" y="-120"/>
      <point x="-207" y="-129" type="curve"/>
      <point x="-197" y="-178" type="line"/>
      <point x="-191" y="-175"/>
      <point x="-179" y="-174"/>
      <point x="-172" y="-174" type="curve" smooth="yes"/>
      <point x="-160" y="-174"/>
      <point x="-150" y="-182"/>
      <point x="-150" y="-202" type="curve" smooth="yes"/>
    </contour>
  </outline>
</glyph>
<glyph name="uuVowel-lao.narrow" format="2">
  <anchor x="-204" y="0" name="_bottom"/>
  <outline>
    <contour>
      <point x="-329" y="-249" type="curve" smooth="yes"/>
      <point x="-242" y="-249"/>
      <point x="-204" y="-214"/>
      <point x="-204" y="-157" type="curve" smooth="yes"/>
      <point x="-204" y="-71" type="line"/>
      <point x="-281" y="-71" type="line"/>
      <point x="-281" y="-154" type="line" smooth="yes"/>
      <point x="-281" y="-177"/>
      <point x="-291" y="-191"/>
      <point x="-329" y="-191" type="curve" smooth="yes"/>
      <point x="-366" y="-191"/>
      <point x="-376" y="-175"/>
      <point x="-376" y="-154" type="curve" smooth="yes"/>
      <point x="-376" y="-124" type="line" smooth="yes"/>
      <point x="-376" y="-90"/>
      <point x="-395" y="-68"/>
      <point x="-441" y="-68" type="curve" smooth="yes"/>
      <point x="-454" y="-68"/>
      <point x="-473" y="-70"/>
      <point x="-490" y="-76" type="curve"/>
      <point x="-484" y="-131" type="line"/>
      <point x="-479" y="-130"/>
      <point x="-476" y="-129"/>
      <point x="-469" y="-129" type="curve" smooth="yes"/>
      <point x="-456" y="-129"/>
      <point x="-452" y="-135"/>
      <point x="-452" y="-148" type="curve" smooth="yes"/>
      <point x="-452" y="-162" type="line" smooth="yes"/>
      <point x="-452" y="-216"/>
      <point x="-411" y="-249"/>
    </contour>
  </outline>
</glyph>
<glyph name="uuVowel-lao.small" format="2">
  <note>
sarauulao4j
</note>
  <anchor x="-82" y="-103" name="_bottom"/>
  <outline>
    <contour>
      <point x="-199" y="-271" type="curve" smooth="yes"/>
      <point x="-128" y="-271"/>
      <point x="-82" y="-242"/>
      <point x="-82" y="-194" type="curve" smooth="yes"/>
      <point x="-82" y="-119" type="line"/>
      <point x="-150" y="-119" type="line"/>
      <point x="-150" y="-198" type="line" smooth="yes"/>
      <point x="-150" y="-214"/>
      <point x="-167" y="-224"/>
      <point x="-196" y="-224" type="curve" smooth="yes"/>
      <point x="-228" y="-224"/>
      <point x="-243" y="-214"/>
      <point x="-243" y="-198" type="curve" smooth="yes"/>
      <point x="-243" y="-171" type="line" smooth="yes"/>
      <point x="-243" y="-136"/>
      <point x="-261" y="-116"/>
      <point x="-299" y="-116" type="curve" smooth="yes"/>
      <point x="-311" y="-116"/>
      <point x="-329" y="-118"/>
      <point x="-345" y="-123" type="curve"/>
      <point x="-337" y="-176" type="line"/>
      <point x="-332" y="-175"/>
      <point x="-328" y="-174"/>
      <point x="-323" y="-174" type="curve" smooth="yes"/>
      <point x="-312" y="-174"/>
      <point x="-308" y="-180"/>
      <point x="-308" y="-194" type="curve" smooth="yes"/>
      <point x="-308" y="-200" type="line" smooth="yes"/>
      <point x="-308" y="-245"/>
      <point x="-269" y="-271"/>
    </contour>
  </outline>
</glyph>
